# Created by FreeCAD <https://www.freecad.org>
v 18.000000 -1.000000 -2.500000
v 20.440596 -1.000000 -8.135233
v 21.335911 -1.000000 -5.364601
v 21.857492 -1.000000 -2.500000
v 9.742967 -1.000000 -10.467311
v 13.527357 -1.000000 -17.349657
v 15.700074 -1.000000 -15.411284
v 11.323328 -1.000000 -8.733398
v 17.597780 -1.000000 -13.202959
v 19.187235 -1.000000 -10.763365
v 7.900367 -1.000000 -11.919488
v 11.117688 -1.000000 -18.984125
v 12.598913 -1.000000 -6.764420
v 5.845123 -1.000000 -13.050844
v 8.513276 -1.000000 -20.286057
v 13.535391 -1.000000 -4.613372
v 17.043291 -1.000000 -2.309699
v 3.632554 -1.000000 -13.830928
v 2.905316 -1.000000 -21.807318
v 5.759741 -1.000000 -21.232649
v 14.107553 -1.000000 -2.338153
v 16.232233 -1.000000 -1.767767
v 15.690301 -1.000000 -0.956709
v 1.322211 -1.000000 -14.238742
v -0.000000 -1.000000 -22.000000
v 18.000000 -1.000000 2.500000
v 21.857492 -1.000000 2.500000
v 21.424408 -1.000000 4.999477
v 14.300000 -1.000000 0.000000
v 15.500000 -1.000000 0.000000
v 15.690301 -1.000000 0.956709
v 20.706476 -1.000000 7.432485
v -1.023719 -1.000000 -14.263309
v -2.905316 -1.000000 -21.807318
v 14.119602 -1.000000 2.264252
v 16.232233 -1.000000 1.767767
v 17.043291 -1.000000 2.309699
v -3.342096 -1.000000 -13.903971
v -5.759741 -1.000000 -21.232649
v 13.582960 -1.000000 4.471376
v -5.570518 -1.000000 -13.170396
v -11.117688 -1.000000 -18.984125
v -8.513276 -1.000000 -20.286057
v 12.703613 -1.000000 6.565685
v 19.713245 -1.000000 9.766675
v 18.457920 -1.000000 11.971014
v -7.649004 -1.000000 -12.082332
v -13.527357 -1.000000 -17.349657
v 11.503748 -1.000000 8.494338
v -9.521613 -1.000000 -10.669062
v 15.582607 -1.000000 14.703576
v 16.957190 -1.000000 14.016194
v 16.342501 -1.000000 14.505072
v 11.747126 -1.000000 11.747129
v 11.242520 -1.000000 11.021630
v 11.021861 -1.000000 10.165894
v 11.112721 -1.000000 9.286849
v 14.149202 -1.000000 14.149207
v 14.807351 -1.000000 14.577790
v -15.700074 -1.000000 -15.411284
v -11.137941 -1.000000 -8.968627
v -17.597780 -1.000000 -13.202959
v -12.454483 -1.000000 -7.026795
v -19.187235 -1.000000 -10.763365
v -20.440596 -1.000000 -8.135233
v -13.435804 -1.000000 -4.895832
v -15.690301 -1.000000 -0.956709
v -16.232233 -1.000000 -1.767767
v -14.055490 -1.000000 -2.633094
v -14.296864 -1.000000 -0.299485
v -17.043291 -1.000000 -2.309699
v -15.500000 -1.000000 0.000000
v -18.000000 -1.000000 -2.500000
v -21.335911 -1.000000 -5.364601
v -15.690301 -1.000000 0.956709
v -14.153426 -1.000000 2.042186
v -16.232233 -1.000000 1.767767
v -13.629040 -1.000000 4.328889
v -17.043291 -1.000000 2.309699
v -21.857492 -1.000000 -2.500000
v -18.000000 -1.000000 2.500000
v -11.242520 -1.000000 11.021630
v -11.503748 -1.000000 8.494338
v -11.112721 -1.000000 9.286849
v -11.021861 -1.000000 10.165894
v -11.747126 -1.000000 11.747129
v -21.424408 -1.000000 4.999477
v -21.857492 -1.000000 2.500000
v -20.706476 -1.000000 7.432485
v -12.737818 -1.000000 6.499077
v -19.713245 -1.000000 9.766675
v -18.457920 -1.000000 11.971014
v -14.149202 -1.000000 14.149207
v -16.342501 -1.000000 14.505072
v -14.807351 -1.000000 14.577790
v -15.582607 -1.000000 14.703576
v -16.957190 -1.000000 14.016194
v -14.838024 1.190961 14.589351
v -14.149202 1.990003 14.149207
v -15.580624 0.576795 14.703670
v -16.302189 0.165932 14.524639
v -16.640169 0.046415 14.320078
v -16.957190 -0.000000 14.016194
v -18.457920 0.000000 11.971014
v -19.713245 0.000000 9.766675
v -20.706476 0.000000 7.432485
v -21.424408 0.000000 4.999477
v -21.857492 -0.000000 2.500000
v -18.000000 1.500000 2.500000
v -20.346991 1.500000 2.500000
v -21.088909 0.763426 2.500000
v -21.469809 0.385129 2.500000
v -18.000000 1.500000 -2.500000
v -17.043291 1.500000 -2.309699
v -16.232233 1.500000 -1.767767
v -15.690301 1.500000 -0.956709
v -15.500000 1.500000 0.000000
v -15.690301 1.500000 0.956709
v -16.232233 1.500000 1.767767
v -17.043291 1.500000 2.309699
v -21.857492 0.000000 -2.500000
v -21.088909 0.763426 -2.500000
v -20.714676 1.135010 -2.500000
v -20.346991 1.500000 -2.500000
v -21.335911 0.000000 -5.364601
v -20.440596 0.000000 -8.135233
v -19.187235 0.000000 -10.763365
v -17.597780 0.000000 -13.202959
v -15.700074 0.000000 -15.411284
v -13.527357 0.000000 -17.349657
v -11.117688 0.000000 -18.984125
v -8.513276 0.000000 -20.286057
v -5.759741 0.000000 -21.232649
v -2.905316 0.000000 -21.807318
v -0.000000 0.000000 -22.000000
v 2.905316 0.000000 -21.807318
v 5.759741 0.000000 -21.232649
v 8.513276 0.000000 -20.286057
v 11.117688 0.000000 -18.984125
v 13.527357 0.000000 -17.349657
v 15.700074 0.000000 -15.411284
v 17.597780 0.000000 -13.202959
v 19.187235 0.000000 -10.763365
v 20.440596 0.000000 -8.135233
v 21.335911 0.000000 -5.364601
v 21.857492 0.000000 -2.500000
v 14.838024 1.190961 14.589351
v 14.149202 1.990003 14.149207
v 15.580624 0.576795 14.703670
v 16.302189 0.165932 14.524639
v 16.640169 0.046415 14.320078
v 16.957190 -0.000000 14.016194
v 18.000000 1.500000 -2.500000
v 20.346991 1.500000 -2.500000
v 21.088909 0.763426 -2.500000
v 21.469809 0.385129 -2.500000
v 21.857492 -0.000000 2.500000
v 21.424408 0.000000 4.999477
v 20.706476 0.000000 7.432485
v 19.713245 0.000000 9.766675
v 18.457920 0.000000 11.971014
v 18.000000 1.500000 2.500000
v 17.043291 1.500000 2.309699
v 16.232233 1.500000 1.767767
v 15.690301 1.500000 0.956709
v 15.500000 1.500000 0.000000
v 15.690301 1.500000 -0.956709
v 16.232233 1.500000 -1.767767
v 17.043291 1.500000 -2.309699
v 21.088909 0.763426 2.500000
v 20.714676 1.135010 2.500000
v 20.346991 1.500000 2.500000
v -15.980207 2.000000 12.026344
v -14.142134 2.000000 14.142138
v -17.504467 2.000000 9.674380
v -18.684978 2.000000 7.132433
v -19.498558 2.000000 4.450421
v -19.929230 2.000000 1.681013
v -20.482981 1.500000 0.835182
v -19.968536 2.000000 -1.121406
v -20.482981 1.500000 -0.835182
v -19.615705 2.000000 -3.901804
v -18.877666 2.000000 -6.605579
v -17.768913 2.000000 -9.179635
v -16.311218 2.000000 -11.573424
v -14.533208 2.000000 -13.739937
v -12.469797 2.000000 -15.636628
v -10.161509 2.000000 -17.226252
v -7.653670 2.000000 -18.477591
v -4.995531 2.000000 -19.366070
v -2.239291 2.000000 -19.874245
v 0.560924 2.000000 -19.992132
v 3.350123 2.000000 -19.717421
v 6.073534 2.000000 -19.055502
v 8.677674 2.000000 -18.019379
v 11.111404 2.000000 -16.629393
v 13.326931 2.000000 -14.912844
v 15.280747 2.000000 -12.903440
v 16.934484 2.000000 -10.640642
v 18.255665 2.000000 -8.168885
v 19.218346 2.000000 -5.536710
v 19.803623 2.000000 -2.795807
v 20.431948 1.500000 -1.668976
v 20.000000 2.000000 0.000000
v 20.482981 1.500000 -0.835182
v 20.500000 1.500000 0.000000
v 20.482981 1.500000 0.835182
v 20.431948 1.500000 1.668976
v 19.828897 2.000000 2.610524
v 19.318516 2.000000 5.176382
v 18.477591 2.000000 7.653670
v 17.320507 2.000000 10.000002
v 15.867065 2.000000 12.175231
v 14.142134 2.000000 14.142138
v -11.747126 4.000000 11.747129
v -14.142134 4.000000 14.142138
v 11.747126 4.000000 11.747129
v 14.142134 4.000000 14.142138
v 15.867065 4.000000 12.175231
v 11.503748 4.000000 8.494338
v 11.242520 4.000000 11.021630
v 11.021861 4.000000 10.165894
v 11.112721 4.000000 9.286849
v 17.320507 4.000000 10.000002
v 12.703613 4.000000 6.565685
v 18.477591 4.000000 7.653670
v 13.582960 4.000000 4.471376
v 19.318516 4.000000 5.176382
v 14.119602 4.000000 2.264252
v 19.828897 4.000000 2.610524
v 14.300000 4.000000 0.000000
v 20.000000 4.000000 0.000000
v 19.803623 4.000000 -2.795807
v 14.107553 4.000000 -2.338153
v 19.218346 4.000000 -5.536710
v 13.535391 4.000000 -4.613372
v 18.255665 4.000000 -8.168885
v 12.598913 4.000000 -6.764420
v 16.934484 4.000000 -10.640642
v 11.323328 4.000000 -8.733398
v 15.280747 4.000000 -12.903440
v 9.742967 4.000000 -10.467311
v -11.021861 4.000000 10.165894
v -11.242520 4.000000 11.021630
v 13.326931 4.000000 -14.912844
v -11.503748 4.000000 8.494338
v -11.112721 4.000000 9.286849
v -15.980207 4.000000 12.026344
v 7.900367 4.000000 -11.919488
v 11.111404 4.000000 -16.629393
v -17.504467 4.000000 9.674380
v -12.737818 4.000000 6.499077
v 8.677674 4.000000 -18.019379
v 5.845123 4.000000 -13.050844
v -18.684978 4.000000 7.132433
v -13.629040 4.000000 4.328889
v 6.073534 4.000000 -19.055502
v 3.632554 4.000000 -13.830928
v -19.498558 4.000000 4.450421
v -14.153426 4.000000 2.042186
v 3.350123 4.000000 -19.717421
v 1.322211 4.000000 -14.238742
v -19.929230 4.000000 1.681013
v -14.296864 4.000000 -0.299485
v 0.560924 4.000000 -19.992132
v -1.023719 4.000000 -14.263309
v -19.968536 4.000000 -1.121406
v -14.055490 4.000000 -2.633094
v -2.239291 4.000000 -19.874245
v -3.342096 4.000000 -13.903971
v -19.615705 4.000000 -3.901804
v -4.995531 4.000000 -19.366070
v -5.570518 4.000000 -13.170396
v -18.877666 4.000000 -6.605579
v -13.435804 4.000000 -4.895832
v -7.653670 4.000000 -18.477591
v -17.768913 4.000000 -9.179635
v -12.454483 4.000000 -7.026795
v -10.161509 4.000000 -17.226252
v -7.649004 4.000000 -12.082332
v -16.311218 4.000000 -11.573424
v -11.137941 4.000000 -8.968627
v -12.469797 4.000000 -15.636628
v -9.521613 4.000000 -10.669062
v -14.533208 4.000000 -13.739937
v 18.000000 -1.000000 -2.500000
v 20.440596 -1.000000 -8.135233
v 21.335911 -1.000000 -5.364601
v 21.857492 -1.000000 -2.500000
v 9.742967 -1.000000 -10.467311
v 13.527357 -1.000000 -17.349657
v 15.700074 -1.000000 -15.411284
v 11.323328 -1.000000 -8.733398
v 17.597780 -1.000000 -13.202959
v 19.187235 -1.000000 -10.763365
v 7.900367 -1.000000 -11.919488
v 11.117688 -1.000000 -18.984125
v 12.598913 -1.000000 -6.764420
v 5.845123 -1.000000 -13.050844
v 8.513276 -1.000000 -20.286057
v 13.535391 -1.000000 -4.613372
v 17.043291 -1.000000 -2.309699
v 3.632554 -1.000000 -13.830928
v 2.905316 -1.000000 -21.807318
v 5.759741 -1.000000 -21.232649
v 14.107553 -1.000000 -2.338153
v 16.232233 -1.000000 -1.767767
v 15.690301 -1.000000 -0.956709
v 1.322211 -1.000000 -14.238742
v -0.000000 -1.000000 -22.000000
v 18.000000 -1.000000 2.500000
v 21.857492 -1.000000 2.500000
v 21.424408 -1.000000 4.999477
v 14.300000 -1.000000 0.000000
v 15.500000 -1.000000 0.000000
v 15.690301 -1.000000 0.956709
v 20.706476 -1.000000 7.432485
v -1.023719 -1.000000 -14.263309
v -2.905316 -1.000000 -21.807318
v 14.119602 -1.000000 2.264252
v 16.232233 -1.000000 1.767767
v 17.043291 -1.000000 2.309699
v -3.342096 -1.000000 -13.903971
v -5.759741 -1.000000 -21.232649
v 13.582960 -1.000000 4.471376
v -5.570518 -1.000000 -13.170396
v -11.117688 -1.000000 -18.984125
v -8.513276 -1.000000 -20.286057
v 12.703613 -1.000000 6.565685
v 19.713245 -1.000000 9.766675
v 18.457920 -1.000000 11.971014
v -7.649004 -1.000000 -12.082332
v -13.527357 -1.000000 -17.349657
v 11.503748 -1.000000 8.494338
v -9.521613 -1.000000 -10.669062
v 15.582607 -1.000000 14.703576
v 16.957190 -1.000000 14.016194
v 16.342501 -1.000000 14.505072
v 11.747126 -1.000000 11.747129
v 11.242520 -1.000000 11.021630
v 11.021861 -1.000000 10.165894
v 11.112721 -1.000000 9.286849
v 14.149202 -1.000000 14.149207
v 14.807351 -1.000000 14.577790
v -15.700074 -1.000000 -15.411284
v -11.137941 -1.000000 -8.968627
v -17.597780 -1.000000 -13.202959
v -12.454483 -1.000000 -7.026795
v -19.187235 -1.000000 -10.763365
v -20.440596 -1.000000 -8.135233
v -13.435804 -1.000000 -4.895832
v -15.690301 -1.000000 -0.956709
v -16.232233 -1.000000 -1.767767
v -14.055490 -1.000000 -2.633094
v -14.296864 -1.000000 -0.299485
v -17.043291 -1.000000 -2.309699
v -15.500000 -1.000000 0.000000
v -18.000000 -1.000000 -2.500000
v -21.335911 -1.000000 -5.364601
v -15.690301 -1.000000 0.956709
v -14.153426 -1.000000 2.042186
v -16.232233 -1.000000 1.767767
v -13.629040 -1.000000 4.328889
v -17.043291 -1.000000 2.309699
v -21.857492 -1.000000 -2.500000
v -18.000000 -1.000000 2.500000
v -11.242520 -1.000000 11.021630
v -11.503748 -1.000000 8.494338
v -11.112721 -1.000000 9.286849
v -11.021861 -1.000000 10.165894
v -11.747126 -1.000000 11.747129
v -21.424408 -1.000000 4.999477
v -21.857492 -1.000000 2.500000
v -20.706476 -1.000000 7.432485
v -12.737818 -1.000000 6.499077
v -19.713245 -1.000000 9.766675
v -18.457920 -1.000000 11.971014
v -14.149202 -1.000000 14.149207
v -16.342501 -1.000000 14.505072
v -14.807351 -1.000000 14.577790
v -15.582607 -1.000000 14.703576
v -16.957190 -1.000000 14.016194
v -14.838024 1.190961 14.589351
v -14.149202 1.990003 14.149207
v -15.580624 0.576795 14.703670
v -16.302189 0.165932 14.524639
v -16.640169 0.046415 14.320078
v -16.957190 -0.000000 14.016194
v -18.457920 0.000000 11.971014
v -19.713245 0.000000 9.766675
v -20.706476 0.000000 7.432485
v -21.424408 0.000000 4.999477
v -21.857492 -0.000000 2.500000
v -18.000000 1.500000 2.500000
v -20.346991 1.500000 2.500000
v -21.088909 0.763426 2.500000
v -21.469809 0.385129 2.500000
v -18.000000 1.500000 -2.500000
v -17.043291 1.500000 -2.309699
v -16.232233 1.500000 -1.767767
v -15.690301 1.500000 -0.956709
v -15.500000 1.500000 0.000000
v -15.690301 1.500000 0.956709
v -16.232233 1.500000 1.767767
v -17.043291 1.500000 2.309699
v -21.857492 0.000000 -2.500000
v -21.088909 0.763426 -2.500000
v -20.714676 1.135010 -2.500000
v -20.346991 1.500000 -2.500000
v -21.335911 0.000000 -5.364601
v -20.440596 0.000000 -8.135233
v -19.187235 0.000000 -10.763365
v -17.597780 0.000000 -13.202959
v -15.700074 0.000000 -15.411284
v -13.527357 0.000000 -17.349657
v -11.117688 0.000000 -18.984125
v -8.513276 0.000000 -20.286057
v -5.759741 0.000000 -21.232649
v -2.905316 0.000000 -21.807318
v -0.000000 0.000000 -22.000000
v 2.905316 0.000000 -21.807318
v 5.759741 0.000000 -21.232649
v 8.513276 0.000000 -20.286057
v 11.117688 0.000000 -18.984125
v 13.527357 0.000000 -17.349657
v 15.700074 0.000000 -15.411284
v 17.597780 0.000000 -13.202959
v 19.187235 0.000000 -10.763365
v 20.440596 0.000000 -8.135233
v 21.335911 0.000000 -5.364601
v 21.857492 0.000000 -2.500000
v 14.838024 1.190961 14.589351
v 14.149202 1.990003 14.149207
v 15.580624 0.576795 14.703670
v 16.302189 0.165932 14.524639
v 16.640169 0.046415 14.320078
v 16.957190 -0.000000 14.016194
v 18.000000 1.500000 -2.500000
v 20.346991 1.500000 -2.500000
v 21.088909 0.763426 -2.500000
v 21.469809 0.385129 -2.500000
v 21.857492 -0.000000 2.500000
v 21.424408 0.000000 4.999477
v 20.706476 0.000000 7.432485
v 19.713245 0.000000 9.766675
v 18.457920 0.000000 11.971014
v 18.000000 1.500000 2.500000
v 17.043291 1.500000 2.309699
v 16.232233 1.500000 1.767767
v 15.690301 1.500000 0.956709
v 15.500000 1.500000 0.000000
v 15.690301 1.500000 -0.956709
v 16.232233 1.500000 -1.767767
v 17.043291 1.500000 -2.309699
v 21.088909 0.763426 2.500000
v 20.714676 1.135010 2.500000
v 20.346991 1.500000 2.500000
v -15.980207 2.000000 12.026344
v -14.142134 2.000000 14.142138
v -17.504467 2.000000 9.674380
v -18.684978 2.000000 7.132433
v -19.498558 2.000000 4.450421
v -19.929230 2.000000 1.681013
v -20.482981 1.500000 0.835182
v -19.968536 2.000000 -1.121406
v -20.482981 1.500000 -0.835182
v -19.615705 2.000000 -3.901804
v -18.877666 2.000000 -6.605579
v -17.768913 2.000000 -9.179635
v -16.311218 2.000000 -11.573424
v -14.533208 2.000000 -13.739937
v -12.469797 2.000000 -15.636628
v -10.161509 2.000000 -17.226252
v -7.653670 2.000000 -18.477591
v -4.995531 2.000000 -19.366070
v -2.239291 2.000000 -19.874245
v 0.560924 2.000000 -19.992132
v 3.350123 2.000000 -19.717421
v 6.073534 2.000000 -19.055502
v 8.677674 2.000000 -18.019379
v 11.111404 2.000000 -16.629393
v 13.326931 2.000000 -14.912844
v 15.280747 2.000000 -12.903440
v 16.934484 2.000000 -10.640642
v 18.255665 2.000000 -8.168885
v 19.218346 2.000000 -5.536710
v 19.803623 2.000000 -2.795807
v 20.431948 1.500000 -1.668976
v 20.000000 2.000000 0.000000
v 20.482981 1.500000 -0.835182
v 20.500000 1.500000 0.000000
v 20.482981 1.500000 0.835182
v 20.431948 1.500000 1.668976
v 19.828897 2.000000 2.610524
v 19.318516 2.000000 5.176382
v 18.477591 2.000000 7.653670
v 17.320507 2.000000 10.000002
v 15.867065 2.000000 12.175231
v 14.142134 2.000000 14.142138
v -11.747126 4.000000 11.747129
v -14.142134 4.000000 14.142138
v 11.747126 4.000000 11.747129
v 14.142134 4.000000 14.142138
v 15.867065 4.000000 12.175231
v 11.112721 4.000000 9.286849
v 11.021861 4.000000 10.165894
v 11.242520 4.000000 11.021630
v 11.503748 4.000000 8.494338
v 17.320507 4.000000 10.000002
v 12.703613 4.000000 6.565685
v 18.477591 4.000000 7.653670
v 13.582960 4.000000 4.471376
v 19.318516 4.000000 5.176382
v 14.119602 4.000000 2.264252
v 19.828897 4.000000 2.610524
v 14.300000 4.000000 0.000000
v 20.000000 4.000000 0.000000
v 19.803623 4.000000 -2.795807
v 14.107553 4.000000 -2.338153
v 19.218346 4.000000 -5.536710
v 13.535391 4.000000 -4.613372
v 18.255665 4.000000 -8.168885
v 12.598913 4.000000 -6.764420
v 16.934484 4.000000 -10.640642
v 11.323328 4.000000 -8.733398
v 15.280747 4.000000 -12.903440
v 9.742967 4.000000 -10.467311
v -11.021861 4.000000 10.165894
v -11.242520 4.000000 11.021630
v 13.326931 4.000000 -14.912844
v -11.503748 4.000000 8.494338
v -11.112721 4.000000 9.286849
v -15.980207 4.000000 12.026344
v 7.900367 4.000000 -11.919488
v 11.111404 4.000000 -16.629393
v -17.504467 4.000000 9.674380
v -12.737818 4.000000 6.499077
v 8.677674 4.000000 -18.019379
v 5.845123 4.000000 -13.050844
v -18.684978 4.000000 7.132433
v -13.629040 4.000000 4.328889
v 6.073534 4.000000 -19.055502
v 3.632554 4.000000 -13.830928
v -19.498558 4.000000 4.450421
v -14.153426 4.000000 2.042186
v 3.350123 4.000000 -19.717421
v 1.322211 4.000000 -14.238742
v -19.929230 4.000000 1.681013
v -14.296864 4.000000 -0.299485
v 0.560924 4.000000 -19.992132
v -1.023719 4.000000 -14.263309
v -19.968536 4.000000 -1.121406
v -14.055490 4.000000 -2.633094
v -2.239291 4.000000 -19.874245
v -3.342096 4.000000 -13.903971
v -19.615705 4.000000 -3.901804
v -4.995531 4.000000 -19.366070
v -5.570518 4.000000 -13.170396
v -18.877666 4.000000 -6.605579
v -13.435804 4.000000 -4.895832
v -7.653670 4.000000 -18.477591
v -17.768913 4.000000 -9.179635
v -12.454483 4.000000 -7.026795
v -10.161509 4.000000 -17.226252
v -7.649004 4.000000 -12.082332
v -16.311218 4.000000 -11.573424
v -11.137941 4.000000 -8.968627
v -12.469797 4.000000 -15.636628
v -9.521613 4.000000 -10.669062
v -14.533208 4.000000 -13.739937
vn 0.000000 -1.000000 0.000000
vn 0.000000 -1.000000 0.000000
vn 0.000000 -1.000000 0.000000
vn 0.000000 -1.000000 -0.000000
vn 0.000000 -1.000000 0.000000
vn 0.000000 -1.000000 0.000000
vn 0.000000 -1.000000 0.000000
vn 0.000000 -1.000000 0.000000
vn 0.000000 -1.000000 -0.000000
vn 0.000000 -1.000000 0.000000
vn 0.000000 -1.000000 0.000000
vn 0.000000 -1.000000 0.000000
vn 0.000000 -1.000000 0.000000
vn 0.000000 -1.000000 -0.000000
vn 0.000000 -1.000000 0.000000
vn 0.000000 -1.000000 0.000000
vn 0.000000 -1.000000 -0.000000
vn 0.000000 -1.000000 0.000000
vn 0.000000 -1.000000 -0.000000
vn 0.000000 -1.000000 0.000000
vn 0.000000 -1.000000 0.000000
vn 0.000000 -1.000000 -0.000000
vn 0.000000 -1.000000 0.000000
vn 0.000000 -1.000000 0.000000
vn 0.000000 -1.000000 0.000000
vn 0.000000 -1.000000 0.000000
vn 0.000000 -1.000000 -0.000000
vn 0.000000 -1.000000 -0.000000
vn 0.000000 -1.000000 0.000000
vn 0.000000 -1.000000 -0.000000
vn 0.000000 -1.000000 0.000000
vn 0.000000 -1.000000 0.000000
vn 0.000000 -1.000000 0.000000
vn 0.000000 -1.000000 0.000000
vn 0.000000 -1.000000 -0.000000
vn 0.000000 -1.000000 0.000000
vn 0.000000 -1.000000 0.000000
vn 0.000000 -1.000000 0.000000
vn 0.000000 -1.000000 0.000000
vn 0.000000 -1.000000 0.000000
vn 0.000000 -1.000000 -0.000000
vn 0.000000 -1.000000 0.000000
vn 0.000000 -1.000000 0.000000
vn 0.000000 -1.000000 0.000000
vn 0.000000 -1.000000 -0.000000
vn 0.000000 -1.000000 0.000000
vn 0.000000 -1.000000 0.000000
vn 0.000000 -1.000000 -0.000000
vn 0.000000 -1.000000 0.000000
vn 0.000000 -1.000000 0.000000
vn 0.000000 -1.000000 0.000000
vn 0.000000 -1.000000 0.000000
vn 0.000000 -1.000000 -0.000000
vn 0.000000 -1.000000 0.000000
vn 0.000000 -1.000000 -0.000000
vn 0.000000 -1.000000 0.000000
vn 0.000000 -1.000000 0.000000
vn 0.000000 -1.000000 0.000000
vn 0.000000 -1.000000 -0.000000
vn 0.000000 -1.000000 0.000000
vn 0.000000 -1.000000 -0.000000
vn 0.000000 -1.000000 0.000000
vn 0.000000 -1.000000 0.000000
vn 0.000000 -1.000000 0.000000
vn 0.000000 -1.000000 -0.000000
vn 0.000000 -1.000000 0.000000
vn 0.000000 -1.000000 0.000000
vn 0.000000 -1.000000 0.000000
vn 0.000000 -1.000000 -0.000000
vn 0.000000 -1.000000 0.000000
vn 0.000000 -1.000000 -0.000000
vn 0.000000 -1.000000 0.000000
vn 0.000000 -1.000000 0.000000
vn 0.000000 -1.000000 0.000000
vn 0.000000 -1.000000 0.000000
vn 0.000000 -1.000000 0.000000
vn 0.000000 -1.000000 0.000000
vn 0.000000 -1.000000 0.000000
vn 0.000000 -1.000000 0.000000
vn 0.000000 -1.000000 -0.000000
vn 0.000000 -1.000000 0.000000
vn 0.000000 -1.000000 0.000000
vn 0.000000 -1.000000 -0.000000
vn 0.000000 -1.000000 -0.000000
vn 0.000000 -1.000000 0.000000
vn 0.000000 -1.000000 0.000000
vn 0.000000 -1.000000 -0.000000
vn 0.000000 -1.000000 0.000000
vn 0.000000 -1.000000 0.000000
vn 0.000000 -1.000000 -0.000000
vn 0.000000 -1.000000 0.000000
vn 0.000000 -1.000000 0.000000
vn 0.000000 -1.000000 0.000000
vn 0.000000 -1.000000 0.000000
vn 0.000000 -1.000000 -0.000000
vn 0.545689 0.003218 0.837981
vn 0.538444 0.000000 0.842661
vn 0.160156 -0.000260 0.987092
vn 0.154613 -0.003048 0.987970
vn -0.252738 -0.007499 0.967506
vn -0.240944 0.000246 0.970539
vn -0.518717 0.003586 0.854939
vn -0.621996 -0.038676 0.782065
vn -0.691991 0.000000 0.721906
vn -0.806230 0.000000 0.591602
vn -0.806230 0.000000 0.591602
vn -0.868972 0.000000 0.494861
vn -0.868972 0.000000 0.494861
vn -0.920161 0.000000 0.391541
vn -0.920161 0.000000 0.391541
vn -0.959115 0.000000 0.283016
vn -0.959115 0.000000 0.283016
vn -0.985318 0.000000 0.170726
vn -0.985318 0.000000 0.170726
vn -0.000000 -0.000000 -1.000000
vn 0.000000 0.000000 -1.000000
vn 0.000000 0.000000 -1.000000
vn 0.000000 0.000000 -1.000000
vn 0.000000 0.000000 -1.000000
vn -0.195090 0.000000 0.980785
vn -0.195090 0.000000 0.980785
vn -0.555570 0.000000 0.831470
vn -0.555570 0.000000 0.831470
vn -0.831469 0.000000 0.555570
vn -0.980785 0.000000 0.195090
vn -0.831469 0.000000 0.555570
vn -0.980785 -0.000000 -0.195090
vn -0.980785 0.000000 0.195090
vn -0.980785 0.000000 -0.195090
vn -0.831469 0.000000 -0.555570
vn -0.831469 0.000000 -0.555570
vn -0.555570 0.000000 -0.831470
vn -0.555570 0.000000 -0.831470
vn -0.195090 0.000000 -0.980785
vn -0.195090 0.000000 -0.980785
vn -0.000000 0.000000 1.000000
vn -0.000000 0.000000 1.000000
vn -0.000000 0.000000 1.000000
vn -0.000000 0.000000 1.000000
vn 0.000000 0.000000 1.000000
vn -0.983825 0.000000 -0.179133
vn -0.951552 0.000000 -0.307489
vn -0.983825 0.000000 -0.179133
vn -0.902611 0.000000 -0.430457
vn -0.951552 0.000000 -0.307489
vn -0.837860 0.000000 -0.545886
vn -0.902611 0.000000 -0.430457
vn -0.758432 0.000000 -0.651752
vn -0.837860 0.000000 -0.545886
vn -0.665719 0.000000 -0.746203
vn -0.758432 0.000000 -0.651752
vn -0.561345 0.000000 -0.827582
vn -0.665719 0.000000 -0.746203
vn -0.447138 0.000000 -0.894465
vn -0.561345 0.000000 -0.827582
vn -0.325100 0.000000 -0.945680
vn -0.447138 0.000000 -0.894465
vn -0.197366 0.000000 -0.980330
vn -0.325100 0.000000 -0.945680
vn -0.066175 0.000000 -0.997808
vn -0.197366 0.000000 -0.980330
vn 0.066175 -0.000000 -0.997808
vn -0.066175 0.000000 -0.997808
vn 0.197366 0.000000 -0.980330
vn 0.066175 0.000000 -0.997808
vn 0.197366 0.000000 -0.980330
vn 0.325100 0.000000 -0.945680
vn 0.325100 0.000000 -0.945680
vn 0.447138 0.000000 -0.894465
vn 0.447138 0.000000 -0.894465
vn 0.561345 0.000000 -0.827582
vn 0.561345 0.000000 -0.827582
vn 0.665719 0.000000 -0.746203
vn 0.665719 0.000000 -0.746203
vn 0.758432 0.000000 -0.651752
vn 0.837860 0.000000 -0.545886
vn 0.758432 0.000000 -0.651752
vn 0.837860 0.000000 -0.545886
vn 0.902611 0.000000 -0.430457
vn 0.951552 0.000000 -0.307489
vn 0.902611 0.000000 -0.430457
vn 0.951552 0.000000 -0.307489
vn 0.983825 0.000000 -0.179133
vn 0.983825 0.000000 -0.179133
vn -0.545689 0.003218 0.837981
vn -0.538444 0.000000 0.842661
vn -0.160156 -0.000260 0.987092
vn -0.154613 -0.003048 0.987970
vn 0.252738 -0.007499 0.967506
vn 0.240944 0.000246 0.970539
vn 0.518717 0.003586 0.854939
vn 0.621996 -0.038676 0.782065
vn 0.691991 0.000000 0.721906
vn -0.000000 0.000000 1.000000
vn 0.000000 0.000000 1.000000
vn 0.000000 0.000000 1.000000
vn 0.000000 0.000000 1.000000
vn 0.000000 0.000000 1.000000
vn 0.985318 -0.000000 0.170726
vn 0.959115 -0.000000 0.283016
vn 0.985318 0.000000 0.170726
vn 0.920161 -0.000000 0.391541
vn 0.959115 0.000000 0.283016
vn 0.868972 -0.000000 0.494861
vn 0.920161 0.000000 0.391541
vn 0.806230 -0.000000 0.591602
vn 0.868972 0.000000 0.494861
vn 0.806230 0.000000 0.591602
vn 0.195090 0.000000 -0.980785
vn 0.195090 0.000000 -0.980785
vn 0.555570 0.000000 -0.831470
vn 0.555570 0.000000 -0.831470
vn 0.831469 0.000000 -0.555570
vn 0.831469 0.000000 -0.555570
vn 0.980785 0.000000 -0.195090
vn 0.980785 0.000000 -0.195090
vn 0.980785 0.000000 0.195090
vn 0.980785 -0.000000 0.195090
vn 0.831469 0.000000 0.555570
vn 0.555570 0.000000 0.831470
vn 0.831469 -0.000000 0.555570
vn 0.555570 0.000000 0.831470
vn 0.195090 0.000000 0.980785
vn 0.195090 -0.000000 0.980785
vn -0.000000 -0.000000 -1.000000
vn -0.000000 0.000000 -1.000000
vn -0.000000 0.000000 -1.000000
vn -0.000000 0.000000 -1.000000
vn 0.000000 0.000000 -1.000000
vn -0.521518 0.736004 0.431645
vn -0.575119 0.700814 0.422016
vn -0.534469 0.706226 0.464315
vn -0.530581 0.711321 0.460985
vn -0.522927 0.717835 0.459630
vn -0.522821 0.717900 0.459649
vn -0.533620 0.713079 0.454718
vn -0.619850 0.700845 0.352991
vn -0.586143 0.715638 0.379867
vn -0.634598 0.714443 0.294715
vn -0.654308 0.703111 0.278417
vn -0.699568 0.704210 0.121214
vn -0.677773 0.707549 0.199997
vn -0.673023 0.710886 0.204159
vn -0.698049 0.705612 0.121820
vn -0.699482 0.704294 0.121226
vn -0.699144 0.704217 0.123598
vn -0.672245 0.732911 0.104541
vn -0.716804 0.694812 0.058552
vn -0.696968 0.717102 0.000000
vn -0.678100 0.734908 0.009511
vn -0.712245 0.699516 -0.058179
vn -0.698857 0.703839 -0.127316
vn -0.698991 0.703714 -0.127271
vn -0.699937 0.705106 -0.113640
vn -0.706041 0.697373 -0.123196
vn -0.667990 0.739327 -0.084768
vn -0.680025 0.699484 -0.219747
vn -0.674571 0.714876 -0.184135
vn -0.644347 0.700278 -0.307290
vn -0.642870 0.714169 -0.276911
vn -0.597290 0.701291 -0.389149
vn -0.598666 0.713230 -0.364557
vn -0.539750 0.702518 -0.463830
vn -0.542749 0.712055 -0.445422
vn -0.472821 0.703958 -0.529984
vn -0.476122 0.710642 -0.517973
vn -0.397772 0.705605 -0.586429
vn -0.399986 0.708985 -0.580819
vn -0.316182 0.707089 -0.632498
vn -0.230474 0.705277 -0.670423
vn -0.315549 0.707460 -0.632399
vn -0.140234 0.703669 -0.696552
vn -0.223456 0.709318 -0.668532
vn -0.047111 0.702269 -0.710351
vn -0.127514 0.710928 -0.691608
vn 0.047188 0.701082 -0.711518
vn -0.029523 0.712296 -0.701258
vn 0.140926 0.700111 -0.699989
vn 0.068683 0.713426 -0.697356
vn 0.232372 0.699358 -0.675945
vn 0.165278 0.714321 -0.680021
vn 0.319835 0.698825 -0.639804
vn 0.258464 0.714984 -0.649611
vn 0.401696 0.698515 -0.592214
vn 0.346517 0.715417 -0.606717
vn 0.476442 0.698427 -0.534043
vn 0.427799 0.715620 -0.552155
vn 0.542695 0.698563 -0.466360
vn 0.500803 0.715596 -0.486949
vn 0.564166 0.715343 -0.412313
vn 0.599236 0.698921 -0.390417
vn 0.616699 0.714861 -0.329632
vn 0.645034 0.699501 -0.307618
vn 0.657406 0.714148 -0.240437
vn 0.679262 0.700302 -0.219500
vn 0.699033 0.703671 -0.127279
vn 0.698947 0.703755 -0.127286
vn 0.698811 0.703882 -0.127331
vn 0.685504 0.713203 -0.146379
vn 0.706987 0.696830 -0.120817
vn 0.696117 0.714392 -0.071165
vn 0.672473 0.738613 -0.047234
vn 0.707033 0.707033 -0.014408
vn 0.682822 0.729388 -0.041793
vn 0.000000 -1.000000 0.000000
vn 0.000000 -1.000000 0.000000
vn 0.000000 -1.000000 0.000000
vn 0.000000 -1.000000 0.000000
vn -0.000000 -1.000000 0.000000
vn -0.000000 -1.000000 0.000000
vn -0.000000 -1.000000 0.000000
vn -0.000000 -1.000000 0.000000
vn 0.000000 -1.000000 0.000000
vn 0.000000 -1.000000 0.000000
vn -0.000000 -1.000000 0.000000
vn 0.707033 0.707033 0.014408
vn 0.682822 0.729388 0.041793
vn 0.699392 0.704377 0.121263
vn 0.699526 0.704253 0.121207
vn 0.700516 0.710034 0.071615
vn 0.677832 0.733873 0.044427
vn 0.697874 0.703027 0.136838
vn 0.683349 0.701694 0.201643
vn 0.688584 0.713671 0.128552
vn 0.702891 0.697421 0.139814
vn 0.656480 0.700716 0.279341
vn 0.663001 0.713987 0.225058
vn 0.620048 0.700612 0.353105
vn 0.627438 0.714550 0.309418
vn 0.521518 0.736004 0.431646
vn 0.574668 0.701383 0.421685
vn 0.581978 0.714203 0.388865
vn 0.534469 0.711391 0.456362
vn 0.522592 0.716302 0.462395
vn 0.521657 0.716852 0.462598
vn 0.528607 0.711074 0.463625
vn 0.532210 0.706336 0.466736
vn 0.000000 -1.000000 0.000000
vn 0.000000 -1.000000 0.000000
vn 0.000000 -1.000000 0.000000
vn 0.000000 -1.000000 0.000000
vn -0.000000 -1.000000 0.000000
vn 0.000000 -1.000000 0.000000
vn 0.000000 -1.000000 0.000000
vn 0.000000 -1.000000 0.000000
vn 0.000000 -1.000000 0.000000
vn 0.000000 -1.000000 0.000000
vn -0.000000 -1.000000 0.000000
vn 0.000000 -1.000000 0.000000
vn 0.000000 -1.000000 0.000000
vn 0.000000 -1.000000 0.000000
vn 0.707107 0.000000 0.707107
vn 0.707107 -0.000000 0.707107
vn 0.707154 -0.000000 0.707059
vn 0.707107 0.000000 0.707107
vn 0.000000 1.000000 0.000000
vn 0.000000 1.000000 -0.000000
vn 0.000000 1.000000 0.000000
vn 0.000000 1.000000 0.000000
vn 0.000000 1.000000 0.000000
vn 0.000000 1.000000 0.000000
vn 0.000000 1.000000 0.000000
vn 0.000000 1.000000 -0.000000
vn 0.000000 1.000000 0.000000
vn 0.000000 1.000000 -0.000000
vn 0.000000 1.000000 0.000000
vn 0.000000 1.000000 -0.000000
vn -0.000000 1.000000 0.000000
vn 0.000000 1.000000 0.000000
vn 0.000000 1.000000 -0.000000
vn -0.000000 1.000000 0.000000
vn 0.000000 1.000000 0.000000
vn -0.000000 1.000000 0.000000
vn 0.000000 1.000000 0.000000
vn -0.000000 1.000000 0.000000
vn 0.000000 1.000000 0.000000
vn -0.000000 1.000000 0.000000
vn 0.000000 1.000000 -0.000000
vn -0.000000 1.000000 0.000000
vn 0.000000 1.000000 0.000000
vn 0.000000 1.000000 -0.000000
vn 0.000000 1.000000 -0.000000
vn 0.000000 1.000000 0.000000
vn 0.000000 1.000000 0.000000
vn -0.000000 1.000000 0.000000
vn -0.000000 1.000000 0.000000
vn 0.000000 1.000000 -0.000000
vn 0.000000 1.000000 0.000000
vn -0.000000 1.000000 0.000000
vn 0.000000 1.000000 0.000000
vn 0.000000 1.000000 -0.000000
vn 0.000000 1.000000 0.000000
vn -0.000000 1.000000 0.000000
vn 0.000000 1.000000 0.000000
vn 0.000000 1.000000 -0.000000
vn 0.000000 1.000000 0.000000
vn -0.000000 1.000000 0.000000
vn 0.000000 1.000000 -0.000000
vn 0.000000 1.000000 0.000000
vn -0.000000 1.000000 0.000000
vn 0.000000 1.000000 0.000000
vn 0.000000 1.000000 -0.000000
vn 0.000000 1.000000 0.000000
vn -0.000000 1.000000 0.000000
vn 0.000000 1.000000 0.000000
vn 0.000000 1.000000 -0.000000
vn -0.000000 1.000000 0.000000
vn 0.000000 1.000000 -0.000000
vn 0.000000 1.000000 -0.000000
vn -0.000000 1.000000 0.000000
vn 0.000000 1.000000 0.000000
vn 0.000000 1.000000 -0.000000
vn -0.000000 1.000000 0.000000
vn 0.000000 1.000000 -0.000000
vn 0.000000 1.000000 0.000000
vn 0.000000 1.000000 0.000000
vn -0.000000 1.000000 0.000000
vn 0.000000 1.000000 -0.000000
vn 0.000000 1.000000 0.000000
vn -0.000000 1.000000 0.000000
vn 0.000000 1.000000 0.000000
vn 0.000000 1.000000 -0.000000
vn -0.000000 1.000000 0.000000
vn 0.000000 1.000000 0.000000
vn -0.707107 0.000000 0.707107
vn -0.707154 0.000000 0.707059
vn -0.707107 0.000000 0.707107
vn -0.707107 0.000000 0.707107
vn 0.896781 0.000000 -0.442474
vn 0.896781 0.000000 -0.442474
vn 0.994700 0.000000 -0.102815
vn 0.994700 0.000000 -0.102815
vn 0.968325 0.000000 0.249691
vn 0.968325 0.000000 0.249691
vn 0.820953 0.000000 0.570996
vn 0.820953 0.000000 0.570996
vn 0.850473 0.000000 -0.526018
vn 0.850473 0.000000 -0.526018
vn 0.925036 0.000000 -0.379880
vn 0.925036 0.000000 -0.379880
vn 0.998129 0.000000 -0.061140
vn 0.974700 0.000000 -0.223518
vn 0.974700 0.000000 -0.223518
vn 0.998129 0.000000 -0.061140
vn 0.994693 0.000000 0.102884
vn 0.994693 0.000000 0.102884
vn 0.964485 0.000000 0.264139
vn 0.964485 0.000000 0.264139
vn 0.908316 0.000000 0.418285
vn 0.908316 0.000000 0.418285
vn 0.724805 0.000000 0.688954
vn 0.827699 0.000000 0.561172
vn 0.827699 0.000000 0.561172
vn 0.602402 0.000000 0.798193
vn 0.724805 0.000000 0.688954
vn 0.602402 0.000000 0.798193
vn 0.463784 0.000000 0.885948
vn 0.463784 0.000000 0.885948
vn 0.312684 0.000000 0.949857
vn 0.153167 0.000000 0.988200
vn 0.312684 0.000000 0.949857
vn 0.153167 0.000000 0.988200
vn -0.010472 0.000000 0.999945
vn -0.173829 0.000000 0.984776
vn -0.010472 0.000000 0.999945
vn -0.173829 0.000000 0.984776
vn -0.332508 0.000000 0.943100
vn -0.332508 0.000000 0.943100
vn -0.482237 0.000000 0.876041
vn -0.482237 0.000000 0.876041
vn -0.618986 0.000000 0.785402
vn -0.618986 0.000000 0.785402
vn -0.739074 0.000000 0.673624
vn -0.739074 0.000000 0.673624
vn -0.839271 0.000000 0.543714
vn -0.839271 0.000000 0.543714
vn -0.916877 0.000000 0.399170
vn -0.916877 0.000000 0.399170
vn -0.969805 0.000000 0.243882
vn -0.969805 0.000000 0.243882
vn -0.996630 -0.000000 0.082030
vn -0.996630 0.000000 0.082030
vn -0.996841 0.000000 -0.079421
vn -0.971690 -0.000000 -0.236258
vn -0.996841 -0.000000 -0.079421
vn -0.971690 -0.000000 -0.236258
vn -0.849093 -0.000000 -0.528243
vn -0.922023 -0.000000 -0.387134
vn -0.922023 0.000000 -0.387134
vn -0.849093 -0.000000 -0.528243
vn -0.820953 0.000000 0.570996
vn -0.820953 0.000000 0.570996
vn -0.968325 0.000000 0.249691
vn -0.968325 0.000000 0.249691
vn -0.994700 0.000000 -0.102815
vn -0.896781 0.000000 -0.442474
vn -0.994700 -0.000000 -0.102815
vn -0.896781 0.000000 -0.442474
vn -0.754914 0.000000 0.655824
vn -0.839179 0.000000 0.543855
vn -0.754914 0.000000 0.655824
vn -0.906965 0.000000 0.421206
vn -0.839179 0.000000 0.543855
vn -0.956940 0.000000 0.290285
vn -0.906965 0.000000 0.421206
vn -0.988123 0.000000 0.153663
vn -0.956940 0.000000 0.290285
vn -0.999902 0.000000 0.014025
vn -0.988123 0.000000 0.153663
vn -0.992044 0.000000 -0.125890
vn -0.999902 0.000000 0.014025
vn -0.992044 0.000000 -0.125890
vn -0.964705 0.000000 -0.263332
vn -0.964705 0.000000 -0.263332
vn -0.918422 0.000000 -0.395603
vn -0.918422 0.000000 -0.395603
vn -0.854102 0.000000 -0.520105
vn -0.773011 0.000000 -0.634393
vn -0.854102 0.000000 -0.520105
vn -0.676738 0.000000 -0.736224
vn -0.773011 0.000000 -0.634393
vn -0.567177 0.000000 -0.823596
vn -0.676738 0.000000 -0.736224
vn -0.446477 0.000000 -0.894795
vn -0.567177 0.000000 -0.823596
vn -0.317009 0.000000 -0.948423
vn -0.446477 0.000000 -0.894795
vn -0.181316 0.000000 -0.983425
vn -0.317009 0.000000 -0.948423
vn -0.181316 0.000000 -0.983425
vn -0.042062 0.000000 -0.999115
vn 0.098017 0.000000 -0.995185
vn -0.042062 0.000000 -0.999115
vn 0.236172 0.000000 -0.971711
vn 0.098017 0.000000 -0.995185
vn 0.369688 0.000000 -0.929156
vn 0.236172 0.000000 -0.971711
vn 0.495946 0.000000 -0.868353
vn 0.369688 0.000000 -0.929156
vn 0.495946 0.000000 -0.868353
vn 0.612464 0.000000 -0.790499
vn 0.716954 0.000000 -0.697121
vn 0.612464 0.000000 -0.790499
vn 0.807365 0.000000 -0.590052
vn 0.716954 0.000000 -0.697121
vn 0.807365 0.000000 -0.590052
vn 0.881921 0.000000 -0.471396
vn 0.939159 0.000000 -0.343484
vn 0.881921 0.000000 -0.471396
vn 0.977953 0.000000 -0.208827
vn 0.939159 0.000000 -0.343484
vn 0.977953 0.000000 -0.208827
vn 0.997542 0.000000 -0.070067
vn 0.997542 0.000000 -0.070067
vn 0.997859 -0.000000 0.065403
vn 0.997859 0.000000 0.065403
vn 0.980785 -0.000000 0.195091
vn 0.946930 -0.000000 0.321439
vn 0.980785 0.000000 0.195091
vn 0.946930 -0.000000 0.321439
vn 0.896873 0.000000 0.442289
vn 0.896873 -0.000000 0.442289
vn 0.831470 0.000000 0.555570
vn 0.831470 -0.000000 0.555570
vn 0.751840 0.000000 0.659346
vn 0.751840 -0.000000 0.659346
vn 0.000000 -1.000000 0.000000
vn 0.000000 -1.000000 0.000000
vn 0.000000 -1.000000 0.000000
vn 0.000000 -1.000000 -0.000000
vn 0.000000 -1.000000 0.000000
vn 0.000000 -1.000000 0.000000
vn 0.000000 -1.000000 0.000000
vn 0.000000 -1.000000 0.000000
vn 0.000000 -1.000000 -0.000000
vn 0.000000 -1.000000 0.000000
vn 0.000000 -1.000000 0.000000
vn 0.000000 -1.000000 0.000000
vn 0.000000 -1.000000 0.000000
vn 0.000000 -1.000000 -0.000000
vn 0.000000 -1.000000 0.000000
vn 0.000000 -1.000000 0.000000
vn 0.000000 -1.000000 -0.000000
vn 0.000000 -1.000000 0.000000
vn 0.000000 -1.000000 -0.000000
vn 0.000000 -1.000000 0.000000
vn 0.000000 -1.000000 0.000000
vn 0.000000 -1.000000 -0.000000
vn 0.000000 -1.000000 0.000000
vn 0.000000 -1.000000 0.000000
vn 0.000000 -1.000000 0.000000
vn 0.000000 -1.000000 0.000000
vn 0.000000 -1.000000 -0.000000
vn 0.000000 -1.000000 -0.000000
vn 0.000000 -1.000000 0.000000
vn 0.000000 -1.000000 -0.000000
vn 0.000000 -1.000000 0.000000
vn 0.000000 -1.000000 0.000000
vn 0.000000 -1.000000 0.000000
vn 0.000000 -1.000000 0.000000
vn 0.000000 -1.000000 -0.000000
vn 0.000000 -1.000000 0.000000
vn 0.000000 -1.000000 0.000000
vn 0.000000 -1.000000 0.000000
vn 0.000000 -1.000000 0.000000
vn 0.000000 -1.000000 0.000000
vn 0.000000 -1.000000 -0.000000
vn 0.000000 -1.000000 0.000000
vn 0.000000 -1.000000 0.000000
vn 0.000000 -1.000000 0.000000
vn 0.000000 -1.000000 -0.000000
vn 0.000000 -1.000000 0.000000
vn 0.000000 -1.000000 0.000000
vn 0.000000 -1.000000 -0.000000
vn 0.000000 -1.000000 0.000000
vn 0.000000 -1.000000 -0.000000
vn 0.000000 -1.000000 0.000000
vn 0.000000 -1.000000 0.000000
vn 0.000000 -1.000000 0.000000
vn 0.000000 -1.000000 0.000000
vn 0.000000 -1.000000 -0.000000
vn 0.000000 -1.000000 0.000000
vn 0.000000 -1.000000 0.000000
vn 0.000000 -1.000000 0.000000
vn 0.000000 -1.000000 -0.000000
vn 0.000000 -1.000000 0.000000
vn 0.000000 -1.000000 -0.000000
vn 0.000000 -1.000000 0.000000
vn 0.000000 -1.000000 0.000000
vn 0.000000 -1.000000 0.000000
vn 0.000000 -1.000000 -0.000000
vn 0.000000 -1.000000 0.000000
vn 0.000000 -1.000000 0.000000
vn 0.000000 -1.000000 0.000000
vn 0.000000 -1.000000 -0.000000
vn 0.000000 -1.000000 0.000000
vn 0.000000 -1.000000 -0.000000
vn 0.000000 -1.000000 0.000000
vn 0.000000 -1.000000 0.000000
vn 0.000000 -1.000000 0.000000
vn 0.000000 -1.000000 0.000000
vn 0.000000 -1.000000 0.000000
vn 0.000000 -1.000000 0.000000
vn 0.000000 -1.000000 0.000000
vn 0.000000 -1.000000 0.000000
vn 0.000000 -1.000000 -0.000000
vn 0.000000 -1.000000 0.000000
vn 0.000000 -1.000000 0.000000
vn 0.000000 -1.000000 -0.000000
vn 0.000000 -1.000000 0.000000
vn 0.000000 -1.000000 -0.000000
vn 0.000000 -1.000000 0.000000
vn 0.000000 -1.000000 -0.000000
vn 0.000000 -1.000000 0.000000
vn 0.000000 -1.000000 0.000000
vn 0.000000 -1.000000 -0.000000
vn 0.000000 -1.000000 0.000000
vn 0.000000 -1.000000 0.000000
vn 0.000000 -1.000000 0.000000
vn 0.000000 -1.000000 0.000000
vn 0.000000 -1.000000 -0.000000
vn 0.545689 0.003218 0.837981
vn 0.538444 0.000000 0.842661
vn 0.160156 -0.000260 0.987092
vn 0.154613 -0.003048 0.987970
vn -0.252738 -0.007499 0.967506
vn -0.240944 0.000246 0.970539
vn -0.518717 0.003586 0.854939
vn -0.621996 -0.038676 0.782065
vn -0.691991 0.000000 0.721906
vn -0.806230 0.000000 0.591602
vn -0.806230 0.000000 0.591602
vn -0.868972 0.000000 0.494861
vn -0.868972 0.000000 0.494861
vn -0.920161 0.000000 0.391541
vn -0.920161 0.000000 0.391541
vn -0.959115 0.000000 0.283016
vn -0.959115 0.000000 0.283016
vn -0.985318 0.000000 0.170726
vn -0.985318 0.000000 0.170726
vn -0.000000 -0.000000 -1.000000
vn 0.000000 0.000000 -1.000000
vn 0.000000 0.000000 -1.000000
vn 0.000000 0.000000 -1.000000
vn 0.000000 0.000000 -1.000000
vn -0.195090 0.000000 0.980785
vn -0.195090 0.000000 0.980785
vn -0.555570 0.000000 0.831470
vn -0.555570 0.000000 0.831470
vn -0.831469 0.000000 0.555570
vn -0.980785 0.000000 0.195090
vn -0.831469 0.000000 0.555570
vn -0.980785 -0.000000 -0.195090
vn -0.980785 0.000000 0.195090
vn -0.980785 0.000000 -0.195090
vn -0.831469 0.000000 -0.555570
vn -0.831469 0.000000 -0.555570
vn -0.555570 0.000000 -0.831470
vn -0.555570 0.000000 -0.831470
vn -0.195090 0.000000 -0.980785
vn -0.195090 0.000000 -0.980785
vn -0.000000 0.000000 1.000000
vn -0.000000 0.000000 1.000000
vn -0.000000 0.000000 1.000000
vn -0.000000 0.000000 1.000000
vn 0.000000 0.000000 1.000000
vn -0.983825 0.000000 -0.179133
vn -0.951552 0.000000 -0.307489
vn -0.983825 0.000000 -0.179133
vn -0.902611 0.000000 -0.430457
vn -0.951552 0.000000 -0.307489
vn -0.837860 0.000000 -0.545886
vn -0.902611 0.000000 -0.430457
vn -0.758432 0.000000 -0.651752
vn -0.837860 0.000000 -0.545886
vn -0.665719 0.000000 -0.746203
vn -0.758432 0.000000 -0.651752
vn -0.561345 0.000000 -0.827582
vn -0.665719 0.000000 -0.746203
vn -0.447138 0.000000 -0.894465
vn -0.561345 0.000000 -0.827582
vn -0.325100 0.000000 -0.945680
vn -0.447138 0.000000 -0.894465
vn -0.197366 0.000000 -0.980330
vn -0.325100 0.000000 -0.945680
vn -0.066175 0.000000 -0.997808
vn -0.197366 0.000000 -0.980330
vn 0.066175 -0.000000 -0.997808
vn -0.066175 0.000000 -0.997808
vn 0.197366 0.000000 -0.980330
vn 0.066175 0.000000 -0.997808
vn 0.197366 0.000000 -0.980330
vn 0.325100 0.000000 -0.945680
vn 0.325100 0.000000 -0.945680
vn 0.447138 0.000000 -0.894465
vn 0.447138 0.000000 -0.894465
vn 0.561345 0.000000 -0.827582
vn 0.561345 0.000000 -0.827582
vn 0.665719 0.000000 -0.746203
vn 0.665719 0.000000 -0.746203
vn 0.758432 0.000000 -0.651752
vn 0.837860 0.000000 -0.545886
vn 0.758432 0.000000 -0.651752
vn 0.837860 0.000000 -0.545886
vn 0.902611 0.000000 -0.430457
vn 0.951552 0.000000 -0.307489
vn 0.902611 0.000000 -0.430457
vn 0.951552 0.000000 -0.307489
vn 0.983825 0.000000 -0.179133
vn 0.983825 0.000000 -0.179133
vn -0.545689 0.003218 0.837981
vn -0.538444 0.000000 0.842661
vn -0.160156 -0.000260 0.987092
vn -0.154613 -0.003048 0.987970
vn 0.252738 -0.007499 0.967506
vn 0.240944 0.000246 0.970539
vn 0.518717 0.003586 0.854939
vn 0.621996 -0.038676 0.782065
vn 0.691991 0.000000 0.721906
vn -0.000000 0.000000 1.000000
vn 0.000000 0.000000 1.000000
vn 0.000000 0.000000 1.000000
vn 0.000000 0.000000 1.000000
vn 0.000000 0.000000 1.000000
vn 0.985318 -0.000000 0.170726
vn 0.959115 -0.000000 0.283016
vn 0.985318 0.000000 0.170726
vn 0.920161 -0.000000 0.391541
vn 0.959115 0.000000 0.283016
vn 0.868972 -0.000000 0.494861
vn 0.920161 0.000000 0.391541
vn 0.806230 -0.000000 0.591602
vn 0.868972 0.000000 0.494861
vn 0.806230 0.000000 0.591602
vn 0.195090 0.000000 -0.980785
vn 0.195090 0.000000 -0.980785
vn 0.555570 0.000000 -0.831470
vn 0.555570 0.000000 -0.831470
vn 0.831469 0.000000 -0.555570
vn 0.831469 0.000000 -0.555570
vn 0.980785 0.000000 -0.195090
vn 0.980785 0.000000 -0.195090
vn 0.980785 0.000000 0.195090
vn 0.980785 -0.000000 0.195090
vn 0.831469 0.000000 0.555570
vn 0.555570 0.000000 0.831470
vn 0.831469 -0.000000 0.555570
vn 0.555570 0.000000 0.831470
vn 0.195090 0.000000 0.980785
vn 0.195090 -0.000000 0.980785
vn -0.000000 -0.000000 -1.000000
vn -0.000000 0.000000 -1.000000
vn -0.000000 0.000000 -1.000000
vn -0.000000 0.000000 -1.000000
vn 0.000000 0.000000 -1.000000
vn -0.521518 0.736004 0.431645
vn -0.575119 0.700814 0.422016
vn -0.534469 0.706226 0.464315
vn -0.530581 0.711321 0.460985
vn -0.522927 0.717835 0.459630
vn -0.522821 0.717900 0.459649
vn -0.533620 0.713079 0.454718
vn -0.619850 0.700845 0.352991
vn -0.586143 0.715638 0.379867
vn -0.634598 0.714443 0.294715
vn -0.654308 0.703111 0.278417
vn -0.699568 0.704210 0.121214
vn -0.677773 0.707549 0.199997
vn -0.673023 0.710886 0.204159
vn -0.698049 0.705612 0.121820
vn -0.699482 0.704294 0.121226
vn -0.699144 0.704217 0.123598
vn -0.672245 0.732911 0.104541
vn -0.716804 0.694812 0.058552
vn -0.696968 0.717102 0.000000
vn -0.678100 0.734908 0.009511
vn -0.712245 0.699516 -0.058179
vn -0.698857 0.703839 -0.127316
vn -0.698991 0.703714 -0.127271
vn -0.699937 0.705106 -0.113640
vn -0.706041 0.697373 -0.123196
vn -0.667990 0.739327 -0.084768
vn -0.680025 0.699484 -0.219747
vn -0.674571 0.714876 -0.184135
vn -0.644347 0.700278 -0.307290
vn -0.642870 0.714169 -0.276911
vn -0.597290 0.701291 -0.389149
vn -0.598666 0.713230 -0.364557
vn -0.539750 0.702518 -0.463830
vn -0.542749 0.712055 -0.445422
vn -0.472821 0.703958 -0.529984
vn -0.476122 0.710642 -0.517973
vn -0.397772 0.705605 -0.586429
vn -0.399986 0.708985 -0.580819
vn -0.316182 0.707089 -0.632498
vn -0.230474 0.705277 -0.670423
vn -0.315549 0.707460 -0.632399
vn -0.140234 0.703669 -0.696552
vn -0.223456 0.709318 -0.668532
vn -0.047111 0.702269 -0.710351
vn -0.127514 0.710928 -0.691608
vn 0.047188 0.701082 -0.711518
vn -0.029523 0.712296 -0.701258
vn 0.140926 0.700111 -0.699989
vn 0.068683 0.713426 -0.697356
vn 0.232372 0.699358 -0.675945
vn 0.165278 0.714321 -0.680021
vn 0.319835 0.698825 -0.639804
vn 0.258464 0.714984 -0.649611
vn 0.401696 0.698515 -0.592214
vn 0.346517 0.715417 -0.606717
vn 0.476442 0.698427 -0.534043
vn 0.427799 0.715620 -0.552155
vn 0.542695 0.698563 -0.466360
vn 0.500803 0.715596 -0.486949
vn 0.564166 0.715343 -0.412313
vn 0.599236 0.698921 -0.390417
vn 0.616699 0.714861 -0.329632
vn 0.645034 0.699501 -0.307618
vn 0.657406 0.714148 -0.240437
vn 0.679262 0.700302 -0.219500
vn 0.699033 0.703671 -0.127279
vn 0.698947 0.703755 -0.127286
vn 0.698811 0.703882 -0.127331
vn 0.685504 0.713203 -0.146379
vn 0.706987 0.696830 -0.120817
vn 0.696117 0.714392 -0.071165
vn 0.672473 0.738613 -0.047234
vn 0.707033 0.707033 -0.014408
vn 0.682822 0.729388 -0.041793
vn 0.000000 -1.000000 0.000000
vn 0.000000 -1.000000 0.000000
vn -0.000000 -1.000000 0.000000
vn -0.000000 -1.000000 0.000000
vn 0.000000 -1.000000 0.000000
vn 0.000000 -1.000000 0.000000
vn -0.000000 -1.000000 0.000000
vn -0.000000 -1.000000 -0.000000
vn 0.000000 -1.000000 0.000000
vn 0.000000 -1.000000 0.000000
vn -0.000000 -1.000000 0.000000
vn 0.707033 0.707033 0.014408
vn 0.682822 0.729388 0.041793
vn 0.699392 0.704377 0.121263
vn 0.699526 0.704253 0.121207
vn 0.700516 0.710034 0.071615
vn 0.677832 0.733873 0.044427
vn 0.697874 0.703027 0.136838
vn 0.683349 0.701694 0.201643
vn 0.688584 0.713671 0.128552
vn 0.702891 0.697421 0.139814
vn 0.656480 0.700716 0.279341
vn 0.663001 0.713987 0.225058
vn 0.620048 0.700612 0.353105
vn 0.627438 0.714550 0.309418
vn 0.521518 0.736004 0.431646
vn 0.574668 0.701383 0.421685
vn 0.581978 0.714203 0.388865
vn 0.534469 0.711391 0.456362
vn 0.522592 0.716302 0.462395
vn 0.521657 0.716852 0.462598
vn 0.528607 0.711074 0.463625
vn 0.532210 0.706336 0.466736
vn 0.000000 -1.000000 0.000000
vn 0.000000 -1.000000 0.000000
vn 0.000000 -1.000000 0.000000
vn 0.000000 -1.000000 0.000000
vn -0.000000 -1.000000 0.000000
vn 0.000000 -1.000000 0.000000
vn 0.000000 -1.000000 0.000000
vn 0.000000 -1.000000 0.000000
vn 0.000000 -1.000000 0.000000
vn 0.000000 -1.000000 0.000000
vn -0.000000 -1.000000 0.000000
vn 0.000000 -1.000000 0.000000
vn 0.000000 -1.000000 0.000000
vn 0.000000 -1.000000 0.000000
vn 0.707107 0.000000 0.707107
vn 0.707107 -0.000000 0.707107
vn 0.707154 -0.000000 0.707059
vn 0.707107 0.000000 0.707107
vn 0.000000 1.000000 0.000000
vn 0.000000 1.000000 -0.000000
vn 0.000000 1.000000 -0.000000
vn 0.000000 1.000000 0.000000
vn 0.000000 1.000000 0.000000
vn 0.000000 1.000000 0.000000
vn 0.000000 1.000000 0.000000
vn 0.000000 1.000000 -0.000000
vn 0.000000 1.000000 0.000000
vn 0.000000 1.000000 -0.000000
vn 0.000000 1.000000 0.000000
vn 0.000000 1.000000 -0.000000
vn -0.000000 1.000000 0.000000
vn 0.000000 1.000000 0.000000
vn 0.000000 1.000000 -0.000000
vn -0.000000 1.000000 0.000000
vn 0.000000 1.000000 0.000000
vn -0.000000 1.000000 0.000000
vn 0.000000 1.000000 0.000000
vn -0.000000 1.000000 0.000000
vn 0.000000 1.000000 0.000000
vn -0.000000 1.000000 0.000000
vn 0.000000 1.000000 -0.000000
vn -0.000000 1.000000 0.000000
vn 0.000000 1.000000 0.000000
vn 0.000000 1.000000 -0.000000
vn 0.000000 1.000000 -0.000000
vn 0.000000 1.000000 0.000000
vn 0.000000 1.000000 0.000000
vn -0.000000 1.000000 0.000000
vn -0.000000 1.000000 0.000000
vn 0.000000 1.000000 -0.000000
vn 0.000000 1.000000 0.000000
vn -0.000000 1.000000 0.000000
vn 0.000000 1.000000 0.000000
vn 0.000000 1.000000 -0.000000
vn 0.000000 1.000000 0.000000
vn -0.000000 1.000000 0.000000
vn 0.000000 1.000000 0.000000
vn 0.000000 1.000000 -0.000000
vn 0.000000 1.000000 0.000000
vn -0.000000 1.000000 0.000000
vn 0.000000 1.000000 -0.000000
vn 0.000000 1.000000 0.000000
vn -0.000000 1.000000 0.000000
vn 0.000000 1.000000 0.000000
vn 0.000000 1.000000 -0.000000
vn 0.000000 1.000000 0.000000
vn -0.000000 1.000000 0.000000
vn 0.000000 1.000000 0.000000
vn 0.000000 1.000000 -0.000000
vn -0.000000 1.000000 0.000000
vn 0.000000 1.000000 -0.000000
vn 0.000000 1.000000 -0.000000
vn -0.000000 1.000000 0.000000
vn 0.000000 1.000000 0.000000
vn 0.000000 1.000000 -0.000000
vn -0.000000 1.000000 0.000000
vn 0.000000 1.000000 -0.000000
vn 0.000000 1.000000 0.000000
vn 0.000000 1.000000 0.000000
vn -0.000000 1.000000 0.000000
vn 0.000000 1.000000 -0.000000
vn 0.000000 1.000000 0.000000
vn -0.000000 1.000000 0.000000
vn 0.000000 1.000000 0.000000
vn 0.000000 1.000000 -0.000000
vn -0.000000 1.000000 0.000000
vn 0.000000 1.000000 0.000000
vn -0.707107 0.000000 0.707107
vn -0.707154 0.000000 0.707059
vn -0.707107 0.000000 0.707107
vn -0.707107 0.000000 0.707107
vn 0.896781 0.000000 -0.442474
vn 0.896781 0.000000 -0.442474
vn 0.994700 0.000000 -0.102815
vn 0.994700 0.000000 -0.102815
vn 0.968325 0.000000 0.249691
vn 0.968325 0.000000 0.249691
vn 0.820953 0.000000 0.570996
vn 0.820953 0.000000 0.570996
vn 0.850473 0.000000 -0.526018
vn 0.850473 0.000000 -0.526018
vn 0.925036 0.000000 -0.379880
vn 0.925036 0.000000 -0.379880
vn 0.998129 0.000000 -0.061140
vn 0.974700 0.000000 -0.223518
vn 0.974700 0.000000 -0.223518
vn 0.998129 0.000000 -0.061140
vn 0.994693 0.000000 0.102884
vn 0.994693 0.000000 0.102884
vn 0.964485 0.000000 0.264139
vn 0.964485 0.000000 0.264139
vn 0.908316 0.000000 0.418285
vn 0.908316 0.000000 0.418285
vn 0.724805 0.000000 0.688954
vn 0.827699 0.000000 0.561172
vn 0.827699 0.000000 0.561172
vn 0.602402 0.000000 0.798193
vn 0.724805 0.000000 0.688954
vn 0.602402 0.000000 0.798193
vn 0.463784 0.000000 0.885948
vn 0.463784 0.000000 0.885948
vn 0.312684 0.000000 0.949857
vn 0.153167 0.000000 0.988200
vn 0.312684 0.000000 0.949857
vn 0.153167 0.000000 0.988200
vn -0.010472 0.000000 0.999945
vn -0.173829 0.000000 0.984776
vn -0.010472 0.000000 0.999945
vn -0.173829 0.000000 0.984776
vn -0.332508 0.000000 0.943100
vn -0.332508 0.000000 0.943100
vn -0.482237 0.000000 0.876041
vn -0.482237 0.000000 0.876041
vn -0.618986 0.000000 0.785402
vn -0.618986 0.000000 0.785402
vn -0.739074 0.000000 0.673624
vn -0.739074 0.000000 0.673624
vn -0.839271 0.000000 0.543714
vn -0.839271 0.000000 0.543714
vn -0.916877 0.000000 0.399170
vn -0.916877 0.000000 0.399170
vn -0.969805 0.000000 0.243882
vn -0.969805 0.000000 0.243882
vn -0.996630 -0.000000 0.082030
vn -0.996630 0.000000 0.082030
vn -0.996841 0.000000 -0.079421
vn -0.971690 -0.000000 -0.236258
vn -0.996841 -0.000000 -0.079421
vn -0.971690 -0.000000 -0.236258
vn -0.849093 -0.000000 -0.528243
vn -0.922023 -0.000000 -0.387134
vn -0.922023 0.000000 -0.387134
vn -0.849093 -0.000000 -0.528243
vn -0.820953 0.000000 0.570996
vn -0.820953 0.000000 0.570996
vn -0.968325 0.000000 0.249691
vn -0.968325 0.000000 0.249691
vn -0.994700 0.000000 -0.102815
vn -0.896781 0.000000 -0.442474
vn -0.994700 -0.000000 -0.102815
vn -0.896781 0.000000 -0.442474
vn -0.754914 0.000000 0.655824
vn -0.839179 0.000000 0.543855
vn -0.754914 0.000000 0.655824
vn -0.906965 0.000000 0.421206
vn -0.839179 0.000000 0.543855
vn -0.956940 0.000000 0.290285
vn -0.906965 0.000000 0.421206
vn -0.988123 0.000000 0.153663
vn -0.956940 0.000000 0.290285
vn -0.999902 0.000000 0.014025
vn -0.988123 0.000000 0.153663
vn -0.992044 0.000000 -0.125890
vn -0.999902 0.000000 0.014025
vn -0.992044 0.000000 -0.125890
vn -0.964705 0.000000 -0.263332
vn -0.964705 0.000000 -0.263332
vn -0.918422 0.000000 -0.395603
vn -0.918422 0.000000 -0.395603
vn -0.854102 0.000000 -0.520105
vn -0.773011 0.000000 -0.634393
vn -0.854102 0.000000 -0.520105
vn -0.676738 0.000000 -0.736224
vn -0.773011 0.000000 -0.634393
vn -0.567177 0.000000 -0.823596
vn -0.676738 0.000000 -0.736224
vn -0.446477 0.000000 -0.894795
vn -0.567177 0.000000 -0.823596
vn -0.317009 0.000000 -0.948423
vn -0.446477 0.000000 -0.894795
vn -0.181316 0.000000 -0.983425
vn -0.317009 0.000000 -0.948423
vn -0.181316 0.000000 -0.983425
vn -0.042062 0.000000 -0.999115
vn 0.098017 0.000000 -0.995185
vn -0.042062 0.000000 -0.999115
vn 0.236172 0.000000 -0.971711
vn 0.098017 0.000000 -0.995185
vn 0.369688 0.000000 -0.929156
vn 0.236172 0.000000 -0.971711
vn 0.495946 0.000000 -0.868353
vn 0.369688 0.000000 -0.929156
vn 0.495946 0.000000 -0.868353
vn 0.612464 0.000000 -0.790499
vn 0.716954 0.000000 -0.697121
vn 0.612464 0.000000 -0.790499
vn 0.807365 0.000000 -0.590052
vn 0.716954 0.000000 -0.697121
vn 0.807365 0.000000 -0.590052
vn 0.881921 0.000000 -0.471396
vn 0.939159 0.000000 -0.343484
vn 0.881921 0.000000 -0.471396
vn 0.977953 0.000000 -0.208827
vn 0.939159 0.000000 -0.343484
vn 0.977953 0.000000 -0.208827
vn 0.997542 0.000000 -0.070067
vn 0.997542 0.000000 -0.070067
vn 0.997859 -0.000000 0.065403
vn 0.997859 0.000000 0.065403
vn 0.980785 -0.000000 0.195091
vn 0.946930 -0.000000 0.321439
vn 0.980785 0.000000 0.195091
vn 0.946930 -0.000000 0.321439
vn 0.896873 0.000000 0.442289
vn 0.896873 -0.000000 0.442289
vn 0.831470 0.000000 0.555570
vn 0.831470 -0.000000 0.555570
vn 0.751840 0.000000 0.659346
vn 0.751840 -0.000000 0.659346
g MeshExport
f 1//1 2//1 3//1
f 1//2 3//2 4//2
f 5//3 6//3 7//3
f 8//4 5//4 7//4
f 8//5 7//5 9//5
f 8//6 9//6 10//6
f 11//7 6//7 5//7
f 11//8 12//8 6//8
f 13//9 8//9 10//9
f 13//10 10//10 2//10
f 14//11 12//11 11//11
f 14//12 15//12 12//12
f 16//13 2//13 1//13
f 16//14 13//14 2//14
f 16//15 1//15 17//15
f 18//16 15//16 14//16
f 18//17 19//17 20//17
f 18//18 20//18 15//18
f 21//19 16//19 17//19
f 21//20 22//20 23//20
f 21//21 17//21 22//21
f 24//22 25//22 19//22
f 24//23 19//23 18//23
f 26//24 27//24 28//24
f 29//25 30//25 31//25
f 29//26 23//26 30//26
f 29//27 21//27 23//27
f 32//28 26//28 28//28
f 33//29 25//29 24//29
f 33//30 34//30 25//30
f 35//31 36//31 37//31
f 35//32 31//32 36//32
f 35//33 29//33 31//33
f 38//34 34//34 33//34
f 38//35 39//35 34//35
f 40//36 37//36 26//36
f 40//37 26//37 32//37
f 40//38 35//38 37//38
f 41//39 42//39 43//39
f 41//40 43//40 39//40
f 41//41 39//41 38//41
f 44//42 32//42 45//42
f 44//43 45//43 46//43
f 44//44 40//44 32//44
f 47//45 42//45 41//45
f 48//46 42//46 47//46
f 49//47 44//47 46//47
f 50//48 48//48 47//48
f 51//49 52//49 53//49
f 54//50 55//50 56//50
f 54//51 56//51 57//51
f 54//52 57//52 49//52
f 54//53 49//53 46//53
f 58//54 52//54 51//54
f 58//55 54//55 46//55
f 58//56 46//56 52//56
f 58//57 51//57 59//57
f 60//58 48//58 50//58
f 61//59 60//59 50//59
f 62//60 60//60 61//60
f 63//61 62//61 61//61
f 64//62 62//62 63//62
f 65//63 64//63 63//63
f 65//64 63//64 66//64
f 67//65 68//65 69//65
f 67//66 69//66 70//66
f 71//67 69//67 68//67
f 71//68 66//68 69//68
f 72//69 67//69 70//69
f 73//70 66//70 71//70
f 73//71 65//71 66//71
f 74//72 65//72 73//72
f 75//73 70//73 76//73
f 75//74 72//74 70//74
f 77//75 75//75 76//75
f 77//76 76//76 78//76
f 79//77 77//77 78//77
f 80//78 74//78 73//78
f 81//79 79//79 78//79
f 82//80 83//80 84//80
f 82//81 84//81 85//81
f 86//82 83//82 82//82
f 87//83 88//83 81//83
f 89//84 87//84 81//84
f 89//85 81//85 78//85
f 89//86 78//86 90//86
f 91//87 89//87 90//87
f 92//88 86//88 93//88
f 92//89 83//89 86//89
f 92//90 91//90 90//90
f 92//91 90//91 83//91
f 94//92 95//92 96//92
f 97//93 93//93 95//93
f 97//94 95//94 94//94
f 97//95 92//95 93//95
f 93//96 98//96 95//96
f 99//97 98//97 93//97
f 95//98 100//98 96//98
f 98//99 100//99 95//99
f 96//100 101//100 94//100
f 100//101 101//101 96//101
f 101//102 102//102 94//102
f 102//103 97//103 94//103
f 102//104 103//104 97//104
f 103//105 104//105 97//105
f 97//106 104//106 92//106
f 92//107 105//107 91//107
f 104//108 105//108 92//108
f 91//109 106//109 89//109
f 105//110 106//110 91//110
f 89//111 107//111 87//111
f 106//112 107//112 89//112
f 87//113 108//113 88//113
f 107//114 108//114 87//114
f 109//115 81//115 110//115
f 81//116 111//116 110//116
f 81//117 112//117 111//117
f 112//118 88//118 108//118
f 81//119 88//119 112//119
f 73//120 71//120 113//120
f 113//121 71//121 114//121
f 114//122 68//122 115//122
f 71//123 68//123 114//123
f 115//124 67//124 116//124
f 116//125 67//125 117//125
f 68//126 67//126 115//126
f 117//127 72//127 118//127
f 67//128 72//128 117//128
f 72//129 75//129 118//129
f 118//130 77//130 119//130
f 75//131 77//131 118//131
f 119//132 79//132 120//132
f 77//133 79//133 119//133
f 120//134 81//134 109//134
f 79//135 81//135 120//135
f 121//136 80//136 122//136
f 123//137 73//137 124//137
f 122//138 73//138 123//138
f 124//139 73//139 113//139
f 80//140 73//140 122//140
f 80//141 121//141 74//141
f 74//142 125//142 65//142
f 121//143 125//143 74//143
f 65//144 126//144 64//144
f 125//145 126//145 65//145
f 64//146 127//146 62//146
f 126//147 127//147 64//147
f 62//148 128//148 60//148
f 127//149 128//149 62//149
f 60//150 129//150 48//150
f 128//151 129//151 60//151
f 48//152 130//152 42//152
f 129//153 130//153 48//153
f 42//154 131//154 43//154
f 130//155 131//155 42//155
f 43//156 132//156 39//156
f 131//157 132//157 43//157
f 39//158 133//158 34//158
f 132//159 133//159 39//159
f 34//160 134//160 25//160
f 133//161 134//161 34//161
f 25//162 135//162 19//162
f 134//163 135//163 25//163
f 19//164 136//164 20//164
f 135//165 136//165 19//165
f 136//166 137//166 20//166
f 20//167 137//167 15//167
f 137//168 138//168 15//168
f 15//169 138//169 12//169
f 138//170 139//170 12//170
f 12//171 139//171 6//171
f 139//172 140//172 6//172
f 6//173 140//173 7//173
f 140//174 141//174 7//174
f 7//175 141//175 9//175
f 9//176 142//176 10//176
f 141//177 142//177 9//177
f 142//178 143//178 10//178
f 10//179 144//179 2//179
f 2//180 144//180 3//180
f 143//181 144//181 10//181
f 144//182 145//182 3//182
f 3//183 146//183 4//183
f 145//184 146//184 3//184
f 147//185 58//185 59//185
f 147//186 148//186 58//186
f 149//187 59//187 51//187
f 149//188 147//188 59//188
f 150//189 51//189 53//189
f 150//190 149//190 51//190
f 151//191 150//191 53//191
f 52//192 151//192 53//192
f 152//193 151//193 52//193
f 153//194 1//194 154//194
f 1//195 155//195 154//195
f 1//196 156//196 155//196
f 156//197 4//197 146//197
f 1//198 4//198 156//198
f 27//199 157//199 28//199
f 28//200 158//200 32//200
f 157//201 158//201 28//201
f 32//202 159//202 45//202
f 158//203 159//203 32//203
f 45//204 160//204 46//204
f 159//205 160//205 45//205
f 46//206 161//206 52//206
f 160//207 161//207 46//207
f 161//208 152//208 52//208
f 26//209 37//209 162//209
f 162//210 37//210 163//210
f 163//211 36//211 164//211
f 37//212 36//212 163//212
f 164//213 31//213 165//213
f 36//214 31//214 164//214
f 165//215 30//215 166//215
f 31//216 30//216 165//216
f 166//217 23//217 167//217
f 30//218 23//218 166//218
f 167//219 22//219 168//219
f 168//220 22//220 169//220
f 23//221 22//221 167//221
f 22//222 17//222 169//222
f 169//223 1//223 153//223
f 17//224 1//224 169//224
f 157//225 27//225 170//225
f 171//226 26//226 172//226
f 170//227 26//227 171//227
f 172//228 26//228 162//228
f 27//229 26//229 170//229
f 101//230 103//230 102//230
f 103//231 173//231 104//231
f 174//232 173//232 99//232
f 99//233 173//233 98//233
f 98//234 173//234 100//234
f 100//235 173//235 101//235
f 101//236 173//236 103//236
f 104//237 175//237 105//237
f 173//238 175//238 104//238
f 175//239 176//239 105//239
f 105//240 176//240 106//240
f 107//241 112//241 108//241
f 106//242 177//242 107//242
f 176//243 177//243 106//243
f 177//244 111//244 107//244
f 107//245 111//245 112//245
f 177//246 110//246 111//246
f 177//247 178//247 110//247
f 178//248 179//248 110//248
f 179//249 180//249 181//249
f 178//250 180//250 179//250
f 180//251 124//251 181//251
f 123//252 125//252 122//252
f 122//253 125//253 121//253
f 124//254 182//254 123//254
f 123//255 182//255 125//255
f 180//256 182//256 124//256
f 125//257 183//257 126//257
f 182//258 183//258 125//258
f 126//259 184//259 127//259
f 183//260 184//260 126//260
f 127//261 185//261 128//261
f 184//262 185//262 127//262
f 128//263 186//263 129//263
f 185//264 186//264 128//264
f 129//265 187//265 130//265
f 186//266 187//266 129//266
f 130//267 188//267 131//267
f 187//268 188//268 130//268
f 188//269 132//269 131//269
f 132//270 189//270 133//270
f 188//271 189//271 132//271
f 133//272 190//272 134//272
f 189//273 190//273 133//273
f 134//274 191//274 135//274
f 190//275 191//275 134//275
f 135//276 192//276 136//276
f 191//277 192//277 135//277
f 136//278 193//278 137//278
f 192//279 193//279 136//279
f 137//280 194//280 138//280
f 193//281 194//281 137//281
f 138//282 195//282 139//282
f 194//283 195//283 138//283
f 139//284 196//284 140//284
f 195//285 196//285 139//285
f 140//286 197//286 141//286
f 196//287 197//287 140//287
f 141//288 198//288 142//288
f 197//289 198//289 141//289
f 198//290 199//290 142//290
f 142//291 199//291 143//291
f 199//292 200//292 143//292
f 143//293 200//293 144//293
f 200//294 201//294 144//294
f 144//295 201//295 145//295
f 145//296 156//296 146//296
f 145//297 155//297 156//297
f 145//298 154//298 155//298
f 201//299 202//299 145//299
f 145//300 202//300 154//300
f 202//301 203//301 154//301
f 202//302 204//302 203//302
f 205//303 204//303 206//303
f 203//304 204//304 205//304
f 124//305 113//305 181//305
f 113//306 179//306 181//306
f 179//307 109//307 110//307
f 113//308 109//308 179//308
f 115//309 117//309 114//309
f 116//310 117//310 115//310
f 117//311 118//311 114//311
f 114//312 119//312 113//312
f 109//313 119//313 120//313
f 113//314 119//314 109//314
f 118//315 119//315 114//315
f 204//316 207//316 206//316
f 204//317 208//317 207//317
f 171//318 158//318 170//318
f 170//319 158//319 157//319
f 208//320 209//320 172//320
f 204//321 209//321 208//321
f 172//322 210//322 171//322
f 158//323 210//323 159//323
f 171//324 210//324 158//324
f 209//325 210//325 172//325
f 159//326 211//326 160//326
f 210//327 211//327 159//327
f 160//328 212//328 161//328
f 211//329 212//329 160//329
f 152//330 150//330 151//330
f 161//331 213//331 152//331
f 212//332 213//332 161//332
f 152//333 213//333 150//333
f 213//334 149//334 150//334
f 213//335 147//335 149//335
f 213//336 148//336 147//336
f 213//337 214//337 148//337
f 166//338 164//338 165//338
f 167//339 164//339 166//339
f 154//340 203//340 153//340
f 167//341 163//341 164//341
f 203//342 205//342 153//342
f 168//343 162//343 167//343
f 169//344 162//344 168//344
f 153//345 162//345 169//345
f 167//346 162//346 163//346
f 153//347 206//347 162//347
f 205//348 206//348 153//348
f 206//349 207//349 162//349
f 207//350 208//350 162//350
f 208//351 172//351 162//351
f 174//352 86//352 215//352
f 174//353 215//353 216//353
f 93//354 174//354 99//354
f 93//355 86//355 174//355
f 217//356 218//356 219//356
f 220//357 221//357 217//357
f 220//358 222//358 221//358
f 220//359 223//359 222//359
f 220//360 219//360 224//360
f 220//361 217//361 219//361
f 225//362 224//362 226//362
f 225//363 220//363 224//363
f 227//364 226//364 228//364
f 227//365 225//365 226//365
f 229//366 228//366 230//366
f 229//367 227//367 228//367
f 231//368 230//368 232//368
f 231//369 232//369 233//369
f 231//370 229//370 230//370
f 234//371 231//371 233//371
f 234//372 233//372 235//372
f 236//373 234//373 235//373
f 236//374 235//374 237//374
f 238//375 236//375 237//375
f 238//376 237//376 239//376
f 240//377 238//377 239//377
f 241//378 240//378 239//378
f 242//379 240//379 241//379
f 243//380 215//380 244//380
f 245//381 242//381 241//381
f 246//382 215//382 243//382
f 246//383 243//383 247//383
f 248//384 215//384 246//384
f 248//385 216//385 215//385
f 249//386 242//386 245//386
f 250//387 249//387 245//387
f 251//388 246//388 252//388
f 251//389 248//389 246//389
f 253//390 254//390 249//390
f 253//391 249//391 250//391
f 255//392 252//392 256//392
f 255//393 251//393 252//393
f 257//394 258//394 254//394
f 257//395 254//395 253//395
f 259//396 256//396 260//396
f 259//397 255//397 256//397
f 261//398 262//398 258//398
f 261//399 258//399 257//399
f 263//400 260//400 264//400
f 263//401 259//401 260//401
f 265//402 266//402 262//402
f 265//403 262//403 261//403
f 267//404 264//404 268//404
f 267//405 263//405 264//405
f 269//406 270//406 266//406
f 269//407 266//407 265//407
f 271//408 267//408 268//408
f 272//409 273//409 270//409
f 272//410 270//410 269//410
f 274//411 268//411 275//411
f 274//412 271//412 268//412
f 276//413 273//413 272//413
f 277//414 274//414 275//414
f 277//415 275//415 278//415
f 279//416 280//416 273//416
f 279//417 273//417 276//417
f 281//418 277//418 278//418
f 281//419 278//419 282//419
f 283//420 280//420 279//420
f 283//421 284//421 280//421
f 285//422 281//422 282//422
f 285//423 284//423 283//423
f 285//424 282//424 284//424
f 217//425 214//425 218//425
f 58//426 148//426 214//426
f 54//427 58//427 214//427
f 54//428 214//428 217//428
f 246//429 247//429 83//429
f 83//430 247//430 84//430
f 84//431 243//431 85//431
f 247//432 243//432 84//432
f 85//433 244//433 82//433
f 243//434 244//434 85//434
f 82//435 215//435 86//435
f 244//436 215//436 82//436
f 252//437 246//437 83//437
f 252//438 83//438 90//438
f 256//439 90//439 78//439
f 256//440 252//440 90//440
f 260//441 76//441 70//441
f 260//442 78//442 76//442
f 260//443 256//443 78//443
f 264//444 260//444 70//444
f 268//445 70//445 69//445
f 268//446 264//446 70//446
f 275//447 69//447 66//447
f 275//448 268//448 69//448
f 278//449 66//449 63//449
f 278//450 275//450 66//450
f 282//451 61//451 50//451
f 282//452 63//452 61//452
f 282//453 278//453 63//453
f 284//454 50//454 47//454
f 284//455 282//455 50//455
f 280//456 284//456 47//456
f 273//457 47//457 41//457
f 273//458 280//458 47//458
f 270//459 273//459 41//459
f 270//460 38//460 33//460
f 270//461 41//461 38//461
f 266//462 270//462 33//462
f 262//463 266//463 33//463
f 262//464 24//464 18//464
f 262//465 33//465 24//465
f 258//466 262//466 18//466
f 258//467 18//467 14//467
f 254//468 258//468 14//468
f 249//469 254//469 14//469
f 249//470 14//470 11//470
f 242//471 249//471 11//471
f 242//472 11//472 5//472
f 240//473 242//473 5//473
f 240//474 5//474 8//474
f 238//475 8//475 13//475
f 238//476 240//476 8//476
f 236//477 13//477 16//477
f 236//478 238//478 13//478
f 234//479 16//479 21//479
f 234//480 236//480 16//480
f 231//481 21//481 29//481
f 231//482 234//482 21//482
f 229//483 231//483 29//483
f 229//484 35//484 40//484
f 229//485 29//485 35//485
f 227//486 229//486 40//486
f 225//487 44//487 49//487
f 225//488 40//488 44//488
f 225//489 227//489 40//489
f 220//490 225//490 49//490
f 217//491 221//491 54//491
f 54//492 221//492 55//492
f 55//493 222//493 56//493
f 221//494 222//494 55//494
f 56//495 223//495 57//495
f 57//496 223//496 49//496
f 222//497 223//497 56//497
f 223//498 220//498 49//498
f 174//499 216//499 248//499
f 173//500 248//500 251//500
f 173//501 174//501 248//501
f 175//502 251//502 255//502
f 175//503 173//503 251//503
f 176//504 255//504 259//504
f 176//505 175//505 255//505
f 177//506 259//506 263//506
f 177//507 176//507 259//507
f 178//508 263//508 267//508
f 178//509 177//509 263//509
f 180//510 267//510 271//510
f 180//511 178//511 267//511
f 182//512 180//512 271//512
f 182//513 271//513 274//513
f 183//514 182//514 274//514
f 183//515 274//515 277//515
f 184//516 183//516 277//516
f 184//517 277//517 281//517
f 185//518 281//518 285//518
f 185//519 184//519 281//519
f 186//520 285//520 283//520
f 186//521 185//521 285//521
f 187//522 283//522 279//522
f 187//523 186//523 283//523
f 188//524 279//524 276//524
f 188//525 187//525 279//525
f 189//526 276//526 272//526
f 189//527 188//527 276//527
f 190//528 272//528 269//528
f 190//529 189//529 272//529
f 191//530 190//530 269//530
f 192//531 269//531 265//531
f 192//532 265//532 261//532
f 192//533 191//533 269//533
f 193//534 261//534 257//534
f 193//535 192//535 261//535
f 194//536 257//536 253//536
f 194//537 193//537 257//537
f 195//538 253//538 250//538
f 195//539 194//539 253//539
f 196//540 195//540 250//540
f 197//541 250//541 245//541
f 197//542 245//542 241//542
f 197//543 196//543 250//543
f 198//544 241//544 239//544
f 198//545 197//545 241//545
f 199//546 198//546 239//546
f 200//547 239//547 237//547
f 200//548 237//548 235//548
f 200//549 199//549 239//549
f 201//550 235//550 233//550
f 201//551 200//551 235//551
f 202//552 201//552 233//552
f 204//553 233//553 232//553
f 204//554 202//554 233//554
f 209//555 232//555 230//555
f 209//556 204//556 232//556
f 210//557 230//557 228//557
f 210//558 228//558 226//558
f 210//559 209//559 230//559
f 211//560 210//560 226//560
f 212//561 211//561 226//561
f 212//562 226//562 224//562
f 213//563 212//563 224//563
f 213//564 224//564 219//564
f 214//565 213//565 219//565
f 214//566 219//566 218//566
g MeshExport001
g MeshExport002
g MeshExport003
g MeshExport004
g MeshExport005
g MeshExport006
g MeshExport007
g MeshExport008
f 286//567 287//567 288//567
f 286//568 288//568 289//568
f 290//569 291//569 292//569
f 293//570 290//570 292//570
f 293//571 292//571 294//571
f 293//572 294//572 295//572
f 296//573 291//573 290//573
f 296//574 297//574 291//574
f 298//575 293//575 295//575
f 298//576 295//576 287//576
f 299//577 297//577 296//577
f 299//578 300//578 297//578
f 301//579 287//579 286//579
f 301//580 298//580 287//580
f 301//581 286//581 302//581
f 303//582 300//582 299//582
f 303//583 304//583 305//583
f 303//584 305//584 300//584
f 306//585 301//585 302//585
f 306//586 307//586 308//586
f 306//587 302//587 307//587
f 309//588 310//588 304//588
f 309//589 304//589 303//589
f 311//590 312//590 313//590
f 314//591 315//591 316//591
f 314//592 308//592 315//592
f 314//593 306//593 308//593
f 317//594 311//594 313//594
f 318//595 310//595 309//595
f 318//596 319//596 310//596
f 320//597 321//597 322//597
f 320//598 316//598 321//598
f 320//599 314//599 316//599
f 323//600 319//600 318//600
f 323//601 324//601 319//601
f 325//602 322//602 311//602
f 325//603 311//603 317//603
f 325//604 320//604 322//604
f 326//605 327//605 328//605
f 326//606 328//606 324//606
f 326//607 324//607 323//607
f 329//608 317//608 330//608
f 329//609 330//609 331//609
f 329//610 325//610 317//610
f 332//611 327//611 326//611
f 333//612 327//612 332//612
f 334//613 329//613 331//613
f 335//614 333//614 332//614
f 336//615 337//615 338//615
f 339//616 334//616 331//616
f 339//617 340//617 341//617
f 339//618 341//618 342//618
f 339//619 342//619 334//619
f 343//620 337//620 336//620
f 343//621 339//621 331//621
f 343//622 331//622 337//622
f 343//623 336//623 344//623
f 345//624 333//624 335//624
f 346//625 345//625 335//625
f 347//626 345//626 346//626
f 348//627 347//627 346//627
f 349//628 347//628 348//628
f 350//629 349//629 348//629
f 350//630 348//630 351//630
f 352//631 353//631 354//631
f 352//632 354//632 355//632
f 356//633 354//633 353//633
f 356//634 351//634 354//634
f 357//635 352//635 355//635
f 358//636 351//636 356//636
f 358//637 350//637 351//637
f 359//638 350//638 358//638
f 360//639 355//639 361//639
f 360//640 357//640 355//640
f 362//641 360//641 361//641
f 362//642 361//642 363//642
f 364//643 362//643 363//643
f 365//644 359//644 358//644
f 366//645 364//645 363//645
f 367//646 368//646 369//646
f 367//647 369//647 370//647
f 371//648 368//648 367//648
f 372//649 373//649 366//649
f 374//650 366//650 363//650
f 374//651 372//651 366//651
f 374//652 363//652 375//652
f 376//653 374//653 375//653
f 377//654 371//654 378//654
f 377//655 368//655 371//655
f 377//656 376//656 375//656
f 377//657 375//657 368//657
f 379//658 380//658 381//658
f 382//659 378//659 380//659
f 382//660 380//660 379//660
f 382//661 377//661 378//661
f 378//662 383//662 380//662
f 384//663 383//663 378//663
f 380//664 385//664 381//664
f 383//665 385//665 380//665
f 381//666 386//666 379//666
f 385//667 386//667 381//667
f 386//668 387//668 379//668
f 387//669 382//669 379//669
f 387//670 388//670 382//670
f 388//671 389//671 382//671
f 382//672 389//672 377//672
f 377//673 390//673 376//673
f 389//674 390//674 377//674
f 376//675 391//675 374//675
f 390//676 391//676 376//676
f 374//677 392//677 372//677
f 391//678 392//678 374//678
f 372//679 393//679 373//679
f 392//680 393//680 372//680
f 394//681 366//681 395//681
f 366//682 396//682 395//682
f 366//683 397//683 396//683
f 397//684 373//684 393//684
f 366//685 373//685 397//685
f 358//686 356//686 398//686
f 398//687 356//687 399//687
f 399//688 353//688 400//688
f 356//689 353//689 399//689
f 400//690 352//690 401//690
f 401//691 352//691 402//691
f 353//692 352//692 400//692
f 402//693 357//693 403//693
f 352//694 357//694 402//694
f 357//695 360//695 403//695
f 403//696 362//696 404//696
f 360//697 362//697 403//697
f 404//698 364//698 405//698
f 362//699 364//699 404//699
f 405//700 366//700 394//700
f 364//701 366//701 405//701
f 406//702 365//702 407//702
f 408//703 358//703 409//703
f 407//704 358//704 408//704
f 409//705 358//705 398//705
f 365//706 358//706 407//706
f 365//707 406//707 359//707
f 359//708 410//708 350//708
f 406//709 410//709 359//709
f 350//710 411//710 349//710
f 410//711 411//711 350//711
f 349//712 412//712 347//712
f 411//713 412//713 349//713
f 347//714 413//714 345//714
f 412//715 413//715 347//715
f 345//716 414//716 333//716
f 413//717 414//717 345//717
f 333//718 415//718 327//718
f 414//719 415//719 333//719
f 327//720 416//720 328//720
f 415//721 416//721 327//721
f 328//722 417//722 324//722
f 416//723 417//723 328//723
f 324//724 418//724 319//724
f 417//725 418//725 324//725
f 319//726 419//726 310//726
f 418//727 419//727 319//727
f 310//728 420//728 304//728
f 419//729 420//729 310//729
f 304//730 421//730 305//730
f 420//731 421//731 304//731
f 421//732 422//732 305//732
f 305//733 422//733 300//733
f 422//734 423//734 300//734
f 300//735 423//735 297//735
f 423//736 424//736 297//736
f 297//737 424//737 291//737
f 424//738 425//738 291//738
f 291//739 425//739 292//739
f 425//740 426//740 292//740
f 292//741 426//741 294//741
f 294//742 427//742 295//742
f 426//743 427//743 294//743
f 427//744 428//744 295//744
f 295//745 429//745 287//745
f 287//746 429//746 288//746
f 428//747 429//747 295//747
f 429//748 430//748 288//748
f 288//749 431//749 289//749
f 430//750 431//750 288//750
f 432//751 343//751 344//751
f 432//752 433//752 343//752
f 434//753 344//753 336//753
f 434//754 432//754 344//754
f 435//755 336//755 338//755
f 435//756 434//756 336//756
f 436//757 435//757 338//757
f 337//758 436//758 338//758
f 437//759 436//759 337//759
f 438//760 286//760 439//760
f 286//761 440//761 439//761
f 286//762 441//762 440//762
f 441//763 289//763 431//763
f 286//764 289//764 441//764
f 312//765 442//765 313//765
f 313//766 443//766 317//766
f 442//767 443//767 313//767
f 317//768 444//768 330//768
f 443//769 444//769 317//769
f 330//770 445//770 331//770
f 444//771 445//771 330//771
f 331//772 446//772 337//772
f 445//773 446//773 331//773
f 446//774 437//774 337//774
f 311//775 322//775 447//775
f 447//776 322//776 448//776
f 448//777 321//777 449//777
f 322//778 321//778 448//778
f 449//779 316//779 450//779
f 321//780 316//780 449//780
f 450//781 315//781 451//781
f 316//782 315//782 450//782
f 451//783 308//783 452//783
f 315//784 308//784 451//784
f 452//785 307//785 453//785
f 453//786 307//786 454//786
f 308//787 307//787 452//787
f 307//788 302//788 454//788
f 454//789 286//789 438//789
f 302//790 286//790 454//790
f 442//791 312//791 455//791
f 456//792 311//792 457//792
f 455//793 311//793 456//793
f 457//794 311//794 447//794
f 312//795 311//795 455//795
f 386//796 388//796 387//796
f 388//797 458//797 389//797
f 459//798 458//798 384//798
f 384//799 458//799 383//799
f 383//800 458//800 385//800
f 385//801 458//801 386//801
f 386//802 458//802 388//802
f 389//803 460//803 390//803
f 458//804 460//804 389//804
f 460//805 461//805 390//805
f 390//806 461//806 391//806
f 392//807 397//807 393//807
f 391//808 462//808 392//808
f 461//809 462//809 391//809
f 462//810 396//810 392//810
f 392//811 396//811 397//811
f 462//812 395//812 396//812
f 462//813 463//813 395//813
f 463//814 464//814 395//814
f 464//815 465//815 466//815
f 463//816 465//816 464//816
f 465//817 409//817 466//817
f 408//818 410//818 407//818
f 407//819 410//819 406//819
f 409//820 467//820 408//820
f 408//821 467//821 410//821
f 465//822 467//822 409//822
f 410//823 468//823 411//823
f 467//824 468//824 410//824
f 411//825 469//825 412//825
f 468//826 469//826 411//826
f 412//827 470//827 413//827
f 469//828 470//828 412//828
f 413//829 471//829 414//829
f 470//830 471//830 413//830
f 414//831 472//831 415//831
f 471//832 472//832 414//832
f 415//833 473//833 416//833
f 472//834 473//834 415//834
f 473//835 417//835 416//835
f 417//836 474//836 418//836
f 473//837 474//837 417//837
f 418//838 475//838 419//838
f 474//839 475//839 418//839
f 419//840 476//840 420//840
f 475//841 476//841 419//841
f 420//842 477//842 421//842
f 476//843 477//843 420//843
f 421//844 478//844 422//844
f 477//845 478//845 421//845
f 422//846 479//846 423//846
f 478//847 479//847 422//847
f 423//848 480//848 424//848
f 479//849 480//849 423//849
f 424//850 481//850 425//850
f 480//851 481//851 424//851
f 425//852 482//852 426//852
f 481//853 482//853 425//853
f 426//854 483//854 427//854
f 482//855 483//855 426//855
f 483//856 484//856 427//856
f 427//857 484//857 428//857
f 484//858 485//858 428//858
f 428//859 485//859 429//859
f 485//860 486//860 429//860
f 429//861 486//861 430//861
f 430//862 441//862 431//862
f 430//863 440//863 441//863
f 430//864 439//864 440//864
f 486//865 487//865 430//865
f 430//866 487//866 439//866
f 487//867 488//867 439//867
f 487//868 489//868 488//868
f 490//869 489//869 491//869
f 488//870 489//870 490//870
f 409//871 398//871 466//871
f 398//872 464//872 466//872
f 400//873 401//873 399//873
f 399//874 394//874 398//874
f 464//875 394//875 395//875
f 398//876 394//876 464//876
f 402//877 404//877 401//877
f 403//878 404//878 402//878
f 394//879 404//879 405//879
f 399//880 404//880 394//880
f 401//881 404//881 399//881
f 489//882 492//882 491//882
f 489//883 493//883 492//883
f 456//884 443//884 455//884
f 455//885 443//885 442//885
f 493//886 494//886 457//886
f 489//887 494//887 493//887
f 457//888 495//888 456//888
f 443//889 495//889 444//889
f 456//890 495//890 443//890
f 494//891 495//891 457//891
f 444//892 496//892 445//892
f 495//893 496//893 444//893
f 445//894 497//894 446//894
f 496//895 497//895 445//895
f 437//896 435//896 436//896
f 446//897 498//897 437//897
f 497//898 498//898 446//898
f 437//899 498//899 435//899
f 498//900 434//900 435//900
f 498//901 432//901 434//901
f 498//902 433//902 432//902
f 498//903 499//903 433//903
f 451//904 449//904 450//904
f 452//905 449//905 451//905
f 439//906 488//906 438//906
f 452//907 448//907 449//907
f 488//908 490//908 438//908
f 453//909 447//909 452//909
f 454//910 447//910 453//910
f 438//911 447//911 454//911
f 452//912 447//912 448//912
f 438//913 491//913 447//913
f 490//914 491//914 438//914
f 491//915 492//915 447//915
f 492//916 493//916 447//916
f 493//917 457//917 447//917
f 459//918 371//918 500//918
f 459//919 500//919 501//919
f 378//920 459//920 384//920
f 378//921 371//921 459//921
f 502//922 503//922 504//922
f 505//923 506//923 507//923
f 508//924 507//924 502//924
f 508//925 504//925 509//925
f 508//926 505//926 507//926
f 508//927 502//927 504//927
f 510//928 509//928 511//928
f 510//929 508//929 509//929
f 512//930 511//930 513//930
f 512//931 510//931 511//931
f 514//932 513//932 515//932
f 514//933 512//933 513//933
f 516//934 515//934 517//934
f 516//935 517//935 518//935
f 516//936 514//936 515//936
f 519//937 516//937 518//937
f 519//938 518//938 520//938
f 521//939 519//939 520//939
f 521//940 520//940 522//940
f 523//941 521//941 522//941
f 523//942 522//942 524//942
f 525//943 523//943 524//943
f 526//944 525//944 524//944
f 527//945 525//945 526//945
f 528//946 500//946 529//946
f 530//947 527//947 526//947
f 531//948 500//948 528//948
f 531//949 528//949 532//949
f 533//950 500//950 531//950
f 533//951 501//951 500//951
f 534//952 527//952 530//952
f 535//953 534//953 530//953
f 536//954 531//954 537//954
f 536//955 533//955 531//955
f 538//956 539//956 534//956
f 538//957 534//957 535//957
f 540//958 537//958 541//958
f 540//959 536//959 537//959
f 542//960 543//960 539//960
f 542//961 539//961 538//961
f 544//962 541//962 545//962
f 544//963 540//963 541//963
f 546//964 547//964 543//964
f 546//965 543//965 542//965
f 548//966 545//966 549//966
f 548//967 544//967 545//967
f 550//968 551//968 547//968
f 550//969 547//969 546//969
f 552//970 549//970 553//970
f 552//971 548//971 549//971
f 554//972 555//972 551//972
f 554//973 551//973 550//973
f 556//974 552//974 553//974
f 557//975 558//975 555//975
f 557//976 555//976 554//976
f 559//977 553//977 560//977
f 559//978 556//978 553//978
f 561//979 558//979 557//979
f 562//980 559//980 560//980
f 562//981 560//981 563//981
f 564//982 565//982 558//982
f 564//983 558//983 561//983
f 566//984 562//984 563//984
f 566//985 563//985 567//985
f 568//986 565//986 564//986
f 568//987 569//987 565//987
f 570//988 566//988 567//988
f 570//989 569//989 568//989
f 570//990 567//990 569//990
f 502//991 499//991 503//991
f 343//992 433//992 499//992
f 339//993 343//993 499//993
f 339//994 499//994 502//994
f 531//995 532//995 368//995
f 368//996 532//996 369//996
f 369//997 528//997 370//997
f 532//998 528//998 369//998
f 370//999 529//999 367//999
f 528//1000 529//1000 370//1000
f 367//1001 500//1001 371//1001
f 529//1002 500//1002 367//1002
f 537//1003 531//1003 368//1003
f 537//1004 368//1004 375//1004
f 541//1005 375//1005 363//1005
f 541//1006 537//1006 375//1006
f 545//1007 361//1007 355//1007
f 545//1008 363//1008 361//1008
f 545//1009 541//1009 363//1009
f 549//1010 545//1010 355//1010
f 553//1011 355//1011 354//1011
f 553//1012 549//1012 355//1012
f 560//1013 354//1013 351//1013
f 560//1014 553//1014 354//1014
f 563//1015 351//1015 348//1015
f 563//1016 560//1016 351//1016
f 567//1017 346//1017 335//1017
f 567//1018 348//1018 346//1018
f 567//1019 563//1019 348//1019
f 569//1020 335//1020 332//1020
f 569//1021 567//1021 335//1021
f 565//1022 569//1022 332//1022
f 558//1023 332//1023 326//1023
f 558//1024 565//1024 332//1024
f 555//1025 558//1025 326//1025
f 555//1026 323//1026 318//1026
f 555//1027 326//1027 323//1027
f 551//1028 555//1028 318//1028
f 547//1029 551//1029 318//1029
f 547//1030 309//1030 303//1030
f 547//1031 318//1031 309//1031
f 543//1032 547//1032 303//1032
f 543//1033 303//1033 299//1033
f 539//1034 543//1034 299//1034
f 534//1035 539//1035 299//1035
f 534//1036 299//1036 296//1036
f 527//1037 534//1037 296//1037
f 527//1038 296//1038 290//1038
f 525//1039 527//1039 290//1039
f 525//1040 290//1040 293//1040
f 523//1041 293//1041 298//1041
f 523//1042 525//1042 293//1042
f 521//1043 298//1043 301//1043
f 521//1044 523//1044 298//1044
f 519//1045 301//1045 306//1045
f 519//1046 521//1046 301//1046
f 516//1047 306//1047 314//1047
f 516//1048 519//1048 306//1048
f 514//1049 516//1049 314//1049
f 514//1050 320//1050 325//1050
f 514//1051 314//1051 320//1051
f 512//1052 514//1052 325//1052
f 510//1053 329//1053 334//1053
f 510//1054 325//1054 329//1054
f 510//1055 512//1055 325//1055
f 508//1056 510//1056 334//1056
f 502//1057 507//1057 339//1057
f 339//1058 507//1058 340//1058
f 340//1059 506//1059 341//1059
f 507//1060 506//1060 340//1060
f 341//1061 505//1061 342//1061
f 342//1062 505//1062 334//1062
f 506//1063 505//1063 341//1063
f 505//1064 508//1064 334//1064
f 459//1065 501//1065 533//1065
f 458//1066 533//1066 536//1066
f 458//1067 459//1067 533//1067
f 460//1068 536//1068 540//1068
f 460//1069 458//1069 536//1069
f 461//1070 540//1070 544//1070
f 461//1071 460//1071 540//1071
f 462//1072 544//1072 548//1072
f 462//1073 461//1073 544//1073
f 463//1074 548//1074 552//1074
f 463//1075 462//1075 548//1075
f 465//1076 552//1076 556//1076
f 465//1077 463//1077 552//1077
f 467//1078 465//1078 556//1078
f 467//1079 556//1079 559//1079
f 468//1080 467//1080 559//1080
f 468//1081 559//1081 562//1081
f 469//1082 468//1082 562//1082
f 469//1083 562//1083 566//1083
f 470//1084 566//1084 570//1084
f 470//1085 469//1085 566//1085
f 471//1086 570//1086 568//1086
f 471//1087 470//1087 570//1087
f 472//1088 568//1088 564//1088
f 472//1089 471//1089 568//1089
f 473//1090 564//1090 561//1090
f 473//1091 472//1091 564//1091
f 474//1092 561//1092 557//1092
f 474//1093 473//1093 561//1093
f 475//1094 557//1094 554//1094
f 475//1095 474//1095 557//1095
f 476//1096 475//1096 554//1096
f 477//1097 554//1097 550//1097
f 477//1098 550//1098 546//1098
f 477//1099 476//1099 554//1099
f 478//1100 546//1100 542//1100
f 478//1101 477//1101 546//1101
f 479//1102 542//1102 538//1102
f 479//1103 478//1103 542//1103
f 480//1104 538//1104 535//1104
f 480//1105 479//1105 538//1105
f 481//1106 480//1106 535//1106
f 482//1107 535//1107 530//1107
f 482//1108 530//1108 526//1108
f 482//1109 481//1109 535//1109
f 483//1110 526//1110 524//1110
f 483//1111 482//1111 526//1111
f 484//1112 483//1112 524//1112
f 485//1113 524//1113 522//1113
f 485//1114 522//1114 520//1114
f 485//1115 484//1115 524//1115
f 486//1116 520//1116 518//1116
f 486//1117 485//1117 520//1117
f 487//1118 486//1118 518//1118
f 489//1119 518//1119 517//1119
f 489//1120 487//1120 518//1120
f 494//1121 517//1121 515//1121
f 494//1122 489//1122 517//1122
f 495//1123 515//1123 513//1123
f 495//1124 513//1124 511//1124
f 495//1125 494//1125 515//1125
f 496//1126 495//1126 511//1126
f 497//1127 496//1127 511//1127
f 497//1128 511//1128 509//1128
f 498//1129 497//1129 509//1129
f 498//1130 509//1130 504//1130
f 499//1131 498//1131 504//1131
f 499//1132 504//1132 503//1132
